<svg id="svg" width="400" height="60" xmlns="http://www.w3.org/2000/svg" fill="#fff">
        <path fill="#fff" d="M9.36,16.48h14.8v5.84h-12.8c-4.4,0-5.28,0.24-5.28,5.76v28.4H0V25.92C0,19.76,3.12,16.48,9.36,16.48z"/>
        <path fill="#fff" d="M41.52,56.4c-7.76,0-15.28-4-15.28-11.28c0-17.6,31.76-7.04,31.44-14.16c-0.32-6.88-4.32-9.44-12.24-9.44c-6.48,0-11.36,1.76-12.4,8.72l-5.44-1.2c1.2-9.52,9.76-12.88,17.76-12.8c9.12,0.08,18.16,3.68,18.16,15.68V48c0,2.08,0.64,2.64,2.24,2.64h1.76v5.84h-3.76c-3.76,0-6.08-2.56-6.08-5.92V46.8C55.36,53.36,48.32,56.4,41.52,56.4z M42.72,51.84c7.04,0,14.96-3.44,14.96-9.52v-5.68c-7.68,4.16-25.52-2-25.52,8.4C32.16,49.68,37.2,51.84,42.72,51.84z"/>
        <path fill="#fff" d="M73.2,56.48v-56h6v21.2c0,1.84-0.4,4.16-1.04,5.92h0.16c0.56-1.68,1.44-4,2.72-5.28c3.76-3.84,10.48-6.4,15.76-6.32c11.2,0.08,18.24,6.64,18.24,20.48S108,56.96,96.8,56.96c-5.28,0-12-2.32-15.76-6c-1.28-1.28-2.16-3.6-2.72-5.28l-0.16,0.08c0.64,1.68,1.04,4,1.04,5.84v4.88C79.2,56.48,73.2,56.48,73.2,56.48z M94.48,51.44c10,0,14.56-4.24,14.56-14.96s-4.8-14.96-14.56-15.12c-6.8-0.08-15.28,5.44-15.28,15.12S87.76,51.44,94.48,51.44z"/>
        <path fill="#fff" d="M120.56,56.48v-56h6v21.2c0,1.84-0.4,4.16-1.04,5.92h0.16c0.56-1.68,1.44-4,2.72-5.28c3.76-3.84,10.48-6.4,15.76-6.32c11.2,0.08,18.24,6.64,18.24,20.48s-7.04,20.48-18.24,20.48c-5.28,0-12-2.32-15.76-6c-1.28-1.28-2.16-3.6-2.72-5.28l-0.16,0.08c0.64,1.68,1.04,4,1.04,5.84v4.88C126.56,56.48,120.56,56.48,120.56,56.48z M141.84,51.44c10,0,14.56-4.24,14.56-14.96s-4.8-14.96-14.56-15.12c-6.8-0.08-15.28,5.44-15.28,15.12S135.12,51.44,141.84,51.44z"/>
        <path fill="#fff" d="M178.72,21.84v-5.76h1.04c3.44,0,8.32-6.16,8.32-11.36l6.16-0.16c0,0-0.08,3.92-2.24,7.52c-2.08,3.28-4.48,3.76-8.08,4.48l0.08,0.16c1.6-0.32,3.68-0.64,5.36-0.64h12.96v5.76h-9.2V46.4c0,3.52,1.92,4.24,4.4,4.24h6.8v5.84h-5.36c-10.16,0-11.84-3.2-11.84-11.68V21.84H178.72z"/>
        <path fill="#fff" d="M206.71,0.48h7.68v2.64h-2.56v5.6h-2.56v-5.6h-2.56V0.48z M217.75,0.48l2.64,5.44l2.72-5.44h2.72v8.24h-2.64V5.36l-1.68,3.36h-2.16l-1.76-3.44v3.44h-2.48V0.48H217.75L217.75,0.48z"/>
        <path fill="#fff" d="M298.84,19.49h-28.51c-4.66,0-8.46,3.79-8.46,8.46s3.79,8.46,8.46,8.46h28.51c4.66,0,8.46-3.79,8.46-8.46S303.51,19.49,298.84,19.49z"/>
        <path fill="#fff" d="M367.13,0h-98.84c-15.57,0-28.24,12.67-28.24,28.24s12.67,28.24,28.24,28.24h98.84c15.57,0,28.24-12.67,28.24-28.24S382.7,0,367.13,0z M298.84,43.86h-28.51c-8.77,0-15.91-7.14-15.91-15.91s7.14-15.91,15.91-15.91h28.51c8.77,0,15.91,7.14,15.91,15.91S307.61,43.86,298.84,43.86z M370.7,43.86h-45.73c-0.39,0-0.71-0.32-0.71-0.71v-6.03c0-0.39,0.32-0.71,0.71-0.71h45.94c1.24,0,2.37-0.89,2.49-2.12c0.14-1.42-0.97-2.61-2.35-2.61H330.7c-5.22,0-9.79-3.93-10.14-9.15c-0.38-5.72,4.16-10.49,9.79-10.49h46.08c0.39,0,0.71,0.32,0.71,0.71v6.03c0,0.39-0.32,0.71-0.71,0.71h-45.94c-1.24,0-2.37,0.89-2.49,2.12c-0.14,1.42,0.97,2.61,2.35,2.61h40.7c5.64,0,10.18,4.77,9.79,10.49C380.49,39.92,375.92,43.86,370.7,43.86z"/>
        <rect x="168.08" y="16.48" width="6" height="40"/>
        <rect x="167.92" y="0.48" fill="#f80000" width="6.32" height="5.52"/>
  </svg>