<svg id="svg" width="600" height="140" xmlns="http://www.w3.org/2000/svg" fill="#fff">
        <path fill="#fff" d="M21.95,37.52h34.71v13.7H26.64c-10.32,0-12.38,0.56-12.38,13.51v66.61H0V59.66C0,45.21,7.31,37.52,21.95,37.52z"/>
        <path fill="#fff" d="M97.37,131.15c-18.2,0-35.84-9.38-35.84-26.46c0-41.28,74.49-16.51,73.74-33.21c-0.75-16.14-10.13-22.14-28.71-22.14c-15.2,0-26.64,4.13-29.08,20.45l-12.76-2.81c2.81-22.33,22.89-30.21,41.66-30.02c21.39,0.19,42.59,8.63,42.59,36.78v37.71c0,4.88,1.5,6.19,5.25,6.19h4.13v13.7h-8.82c-8.82,0-14.26-6.01-14.26-13.88v-8.82C129.84,124.02,113.32,131.15,97.37,131.15z M100.19,120.46c16.51,0,35.09-8.07,35.09-22.33V84.81c-18.01,9.76-59.86-4.69-59.86,19.7C75.42,115.39,87.24,120.46,100.19,120.46z"/>
        <path fill="#fff" d="M171.67,131.34V0h14.07v49.72c0,4.32-0.94,9.76-2.44,13.88h0.38c1.31-3.94,3.38-9.38,6.38-12.38c8.82-9.01,24.58-15.01,36.96-14.82c26.27,0.19,42.78,15.57,42.78,48.03s-16.51,48.03-42.78,48.03c-12.38,0-28.15-5.44-36.96-14.07c-3-3-5.07-8.44-6.38-12.38l-0.38,0.19c1.5,3.94,2.44,9.38,2.44,13.7v11.45h-14.07V131.34z M221.58,119.52c23.45,0,34.15-9.94,34.15-35.09c0-24.58-11.26-35.09-34.15-35.46c-15.95-0.19-35.84,12.76-35.84,35.46C185.75,107.13,205.82,119.52,221.58,119.52z"/>
        <path fill="#fff" d="M282.75,131.34V0h14.07v49.72c0,4.32-0.94,9.76-2.44,13.88h0.38c1.31-3.94,3.38-9.38,6.38-12.38c8.82-9.01,24.58-15.01,36.96-14.82c26.27,0.19,42.78,15.57,42.78,48.03s-16.51,48.03-42.78,48.03c-12.38,0-28.15-5.44-36.96-14.07c-3-3-5.07-8.44-6.38-12.38l-0.38,0.19c1.5,3.94,2.44,9.38,2.44,13.7v11.45h-14.07V131.34z M332.66,119.52c23.45,0,34.15-9.94,34.15-35.09c0-24.58-11.26-35.09-34.15-35.46c-15.95-0.19-35.84,12.76-35.84,35.46C296.82,107.13,316.9,119.52,332.66,119.52z"/>
        <path fill="#fff" d="M419.15,50.09V36.58h2.44c8.07,0,19.51-14.45,19.51-26.64l14.45-0.38c0,0-0.19,9.19-5.25,17.64c-4.88,7.69-10.51,8.82-18.95,10.51l0.19,0.38c3.75-0.75,8.63-1.5,12.57-1.5h30.4V50.1h-21.58v57.6c0,8.25,4.5,9.94,10.32,9.94 h15.95v13.7h-12.58c-23.83,0-27.77-7.51-27.77-27.4V50.09L419.15,50.09L419.15,50.09z"/>
        <path fill="#fff" d="M484.8,0h18.01v6.19h-6v13.14h-6.01V6.19h-6V0z M510.69,0l6.19,12.76L523.26,0h6.38v19.33h-6.19v-7.88l-3.94,7.88h-5.07l-4.13-8.07v8.07h-5.82V0H510.69z"/>
        <rect x="394.2" y="37.52" width="14.07" height="93.82"/>
        <rect fill="#F80000" x="393.82" width="14.82" height="12.95"/>
  </svg>