<svg width="32" height="32" viewBox="0 0 32 32" fill="none" xmlns="http://www.w3.org/2000/svg">
<path d="M5 9.43803C5 9.12514 5.11589 8.82507 5.32218 8.60384C5.52847 8.38259 5.80826 8.2583 6.1 8.2583H25.9C26.1917 8.2583 26.4715 8.38259 26.6778 8.60384C26.8841 8.82507 27 9.12514 27 9.43803C27 9.75091 26.8841 10.051 26.6778 10.2722C26.4715 10.4934 26.1917 10.6177 25.9 10.6177H6.1C5.80826 10.6177 5.52847 10.4934 5.32218 10.2722C5.11589 10.051 5 9.75091 5 9.43803ZM5 23.5947C5 23.2818 5.11589 22.9817 5.32218 22.7605C5.52847 22.5393 5.80826 22.415 6.1 22.415H25.9C26.1917 22.415 26.4715 22.5393 26.6778 22.7605C26.8841 22.9817 27 23.2818 27 23.5947C27 23.9075 26.8841 24.2076 26.6778 24.4289C26.4715 24.6501 26.1917 24.7744 25.9 24.7744H6.1C5.80826 24.7744 5.52847 24.6501 5.32218 24.4289C5.11589 24.2076 5 23.9075 5 23.5947ZM6.1 15.3366C5.80826 15.3366 5.52847 15.461 5.32218 15.6822C5.11589 15.9034 5 16.2035 5 16.5164C5 16.8292 5.11589 17.1293 5.32218 17.3505C5.52847 17.5717 5.80826 17.6961 6.1 17.6961H25.9C26.1917 17.6961 26.4715 17.5717 26.6778 17.3505C26.8841 17.1293 27 16.8292 27 16.5164C27 16.2035 26.8841 15.9034 26.6778 15.6822C26.4715 15.461 26.1917 15.3366 25.9 15.3366H6.1Z" fill="white"/>
</svg>
