<?xml version="1.0" encoding="utf-8"?>
<!-- Generator: Adobe Illustrator 27.6.1, SVG Export Plug-In . SVG Version: 6.00 Build 0)  -->
<svg version="1.1" id="Layer_1" xmlns="http://www.w3.org/2000/svg" xmlns:xlink="http://www.w3.org/1999/xlink" x="0px" y="0px"
	 viewBox="0 0 600 371" style="enable-background:new 0 0 600 371;" xml:space="preserve">
<style type="text/css">
	.st0{fill:#FFFFFF;fill-opacity:0;}
	.st1{fill:none;stroke:#333333;stroke-miterlimit:10;}
	.st2{fill:none;stroke:#CCCCCC;stroke-miterlimit:10;}
	
		.st3{clip-path:url(#SVGID_00000094579209084757111990000014664670596182172326_);fill:none;stroke:#4CDC8B;stroke-width:4;stroke-miterlimit:10;}
	.st4{clip-path:url(#SVGID_00000181791949778149285030000012618954155851493808_);fill:#4CDC8B;}
	.st5{clip-path:url(#SVGID_00000090997430970050496560000014060095218788909503_);fill:#4CDC8B;}
	.st6{clip-path:url(#SVGID_00000108310439823522211580000018098103414130991004_);fill:#4CDC8B;}
	.st7{clip-path:url(#SVGID_00000023991693490085802090000005811670511644852888_);fill:#4CDC8B;}
	.st8{clip-path:url(#SVGID_00000138533860874972815310000006793522502864839814_);fill:#4CDC8B;}
	.st9{fill:none;stroke:#FF1212;stroke-width:4;stroke-miterlimit:10;}
</style>
<path class="st0" d="M0,0h600v371H0V0z"/>
<path class="st1" d="M48.5,332.5h533"/>
<path class="st2" d="M48.5,262.5h533"/>
<path class="st2" d="M48.5,193.5h533"/>
<path class="st2" d="M48.5,123.5h533"/>
<path class="st2" d="M48.5,53.5h533"/>
<g>
	<defs>
		<rect id="SVGID_1_" x="48.5" y="53.9" width="532.9" height="278.5"/>
	</defs>
	<clipPath id="SVGID_00000154392097604564197730000016818798294889165975_">
		<use xlink:href="#SVGID_1_"  style="overflow:visible;"/>
	</clipPath>
	
		<path style="clip-path:url(#SVGID_00000154392097604564197730000016818798294889165975_);fill:none;stroke:#4CDC8B;stroke-width:4;stroke-miterlimit:10;" d="
		M101.8,221l106.6,41.8L315,193.2l106.6,125.3L528.2,53.9"/>
</g>
<g>
	<defs>
		<rect id="SVGID_00000149356741514118014940000003316696757002594231_" x="48.5" y="53.9" width="532.9" height="278.5"/>
	</defs>
	<clipPath id="SVGID_00000049184668170400615470000015672571799035737495_">
		<use xlink:href="#SVGID_00000149356741514118014940000003316696757002594231_"  style="overflow:visible;"/>
	</clipPath>
	<path style="clip-path:url(#SVGID_00000049184668170400615470000015672571799035737495_);fill:#4CDC8B;" d="M103.8,221
		c0,1.1-0.9,2-2,2c-1.1,0-2-0.9-2-2s0.9-2,2-2C102.9,219,103.8,219.9,103.8,221z"/>
</g>
<g>
	<defs>
		<rect id="SVGID_00000044896023291970980390000013404455893568610459_" x="48.5" y="53.9" width="532.9" height="278.5"/>
	</defs>
	<clipPath id="SVGID_00000105413757188858717470000006865858047747072179_">
		<use xlink:href="#SVGID_00000044896023291970980390000013404455893568610459_"  style="overflow:visible;"/>
	</clipPath>
	<path style="clip-path:url(#SVGID_00000105413757188858717470000006865858047747072179_);fill:#4CDC8B;" d="M210.4,262.8
		c0,1.1-0.9,2-2,2s-2-0.9-2-2c0-1.1,0.9-2,2-2S210.4,261.7,210.4,262.8z"/>
</g>
<g>
	<defs>
		<rect id="SVGID_00000016798283573992582190000016970308304797423012_" x="48.5" y="53.9" width="532.9" height="278.5"/>
	</defs>
	<clipPath id="SVGID_00000009551468920329070900000011363271886186903449_">
		<use xlink:href="#SVGID_00000016798283573992582190000016970308304797423012_"  style="overflow:visible;"/>
	</clipPath>
	<path style="clip-path:url(#SVGID_00000009551468920329070900000011363271886186903449_);fill:#4CDC8B;" d="M317,193.2
		c0,1.1-0.9,2-2,2s-2-0.9-2-2s0.9-2,2-2S317,192.1,317,193.2z"/>
</g>
<g>
	<defs>
		<rect id="SVGID_00000160892245607549052310000011401202389943957182_" x="48.5" y="53.9" width="532.9" height="278.5"/>
	</defs>
	<clipPath id="SVGID_00000116934387653457107480000002748690873558396308_">
		<use xlink:href="#SVGID_00000160892245607549052310000011401202389943957182_"  style="overflow:visible;"/>
	</clipPath>
	<path style="clip-path:url(#SVGID_00000116934387653457107480000002748690873558396308_);fill:#4CDC8B;" d="M423.6,318.5
		c0,1.1-0.9,2-2,2c-1.1,0-2-0.9-2-2c0-1.1,0.9-2,2-2C422.7,316.5,423.6,317.4,423.6,318.5z"/>
</g>
<g>
	<defs>
		<rect id="SVGID_00000093162143379930999350000010617955799059295875_" x="48.5" y="53.9" width="532.9" height="278.5"/>
	</defs>
	<clipPath id="SVGID_00000005976132759848022770000008310834912635115138_">
		<use xlink:href="#SVGID_00000093162143379930999350000010617955799059295875_"  style="overflow:visible;"/>
	</clipPath>
	<path style="clip-path:url(#SVGID_00000005976132759848022770000008310834912635115138_);fill:#4CDC8B;" d="M530.2,53.9
		c0,1.1-0.9,2-2,2c-1.1,0-2-0.9-2-2c0-1.1,0.9-2,2-2C529.3,51.9,530.2,52.8,530.2,53.9z"/>
</g>
<path d="M19,332.2c0-1,0.1-1.8,0.3-2.5c0.2-0.6,0.5-1.1,0.9-1.4c0.4-0.3,0.9-0.5,1.6-0.5c0.5,0,0.9,0.1,1.2,0.3
	c0.4,0.2,0.6,0.5,0.9,0.8c0.2,0.3,0.4,0.8,0.5,1.3c0.1,0.5,0.2,1.2,0.2,2c0,1-0.1,1.8-0.3,2.4c-0.2,0.6-0.5,1.1-0.9,1.4
	c-0.4,0.3-0.9,0.5-1.6,0.5c-0.8,0-1.5-0.3-2-0.9C19.3,335,19,333.8,19,332.2z M20.1,332.2c0,1.4,0.2,2.3,0.5,2.8s0.7,0.7,1.2,0.7
	c0.5,0,0.9-0.2,1.2-0.7c0.3-0.5,0.5-1.4,0.5-2.8c0-1.4-0.2-2.4-0.5-2.8c-0.3-0.5-0.7-0.7-1.2-0.7c-0.5,0-0.9,0.2-1.2,0.6
	C20.3,329.8,20.1,330.8,20.1,332.2z M26.6,336.5v-1.2h1.2v1.2H26.6z M29,332.2c0-1,0.1-1.8,0.3-2.5c0.2-0.6,0.5-1.1,0.9-1.4
	c0.4-0.3,0.9-0.5,1.6-0.5c0.5,0,0.9,0.1,1.2,0.3c0.4,0.2,0.6,0.5,0.9,0.8c0.2,0.3,0.4,0.8,0.5,1.3s0.2,1.2,0.2,2
	c0,1-0.1,1.8-0.3,2.4c-0.2,0.6-0.5,1.1-0.9,1.4c-0.4,0.3-0.9,0.5-1.6,0.5c-0.8,0-1.5-0.3-2-0.9C29.3,335,29,333.8,29,332.2z
	 M30.1,332.2c0,1.4,0.2,2.3,0.5,2.8c0.3,0.5,0.7,0.7,1.2,0.7c0.5,0,0.9-0.2,1.2-0.7c0.3-0.5,0.5-1.4,0.5-2.8c0-1.4-0.2-2.4-0.5-2.8
	c-0.3-0.5-0.7-0.7-1.2-0.7c-0.5,0-0.9,0.2-1.2,0.6C30.3,329.8,30.1,330.8,30.1,332.2z M36,332.2c0-1,0.1-1.8,0.3-2.5
	c0.2-0.6,0.5-1.1,0.9-1.4c0.4-0.3,0.9-0.5,1.6-0.5c0.5,0,0.9,0.1,1.2,0.3c0.4,0.2,0.6,0.5,0.9,0.8c0.2,0.3,0.4,0.8,0.5,1.3
	s0.2,1.2,0.2,2c0,1-0.1,1.8-0.3,2.4c-0.2,0.6-0.5,1.1-0.9,1.4c-0.4,0.3-0.9,0.5-1.6,0.5c-0.8,0-1.5-0.3-2-0.9
	C36.3,335,36,333.8,36,332.2z M37.1,332.2c0,1.4,0.2,2.3,0.5,2.8c0.3,0.5,0.7,0.7,1.2,0.7c0.5,0,0.9-0.2,1.2-0.7
	c0.3-0.5,0.5-1.4,0.5-2.8c0-1.4-0.2-2.4-0.5-2.8c-0.3-0.5-0.7-0.7-1.2-0.7c-0.5,0-0.9,0.2-1.2,0.6C37.3,329.8,37.1,330.8,37.1,332.2
	z"/>
<path d="M19,262.6c0-1,0.1-1.8,0.3-2.5c0.2-0.6,0.5-1.1,0.9-1.4c0.4-0.3,0.9-0.5,1.6-0.5c0.5,0,0.9,0.1,1.2,0.3
	c0.4,0.2,0.6,0.5,0.9,0.8c0.2,0.3,0.4,0.8,0.5,1.3c0.1,0.5,0.2,1.2,0.2,2c0,1-0.1,1.8-0.3,2.4c-0.2,0.6-0.5,1.1-0.9,1.4
	c-0.4,0.3-0.9,0.5-1.6,0.5c-0.8,0-1.5-0.3-2-0.9C19.3,265.4,19,264.2,19,262.6z M20.1,262.6c0,1.4,0.2,2.3,0.5,2.8s0.7,0.7,1.2,0.7
	c0.5,0,0.9-0.2,1.2-0.7c0.3-0.5,0.5-1.4,0.5-2.8c0-1.4-0.2-2.4-0.5-2.8c-0.3-0.5-0.7-0.7-1.2-0.7c-0.5,0-0.9,0.2-1.2,0.6
	C20.3,260.2,20.1,261.2,20.1,262.6z M26.6,266.8v-1.2h1.2v1.2H26.6z M34.6,265.8v1h-5.7c0-0.2,0-0.5,0.1-0.7
	c0.1-0.4,0.4-0.8,0.7-1.1c0.3-0.4,0.8-0.8,1.4-1.3c0.9-0.8,1.6-1.4,1.9-1.8c0.3-0.4,0.5-0.9,0.5-1.3c0-0.4-0.2-0.8-0.5-1
	c-0.3-0.3-0.7-0.4-1.2-0.4c-0.5,0-0.9,0.2-1.2,0.5c-0.3,0.3-0.5,0.7-0.5,1.3l-1.1-0.1c0.1-0.8,0.3-1.4,0.8-1.8
	c0.5-0.4,1.1-0.6,2-0.6c0.8,0,1.5,0.2,2,0.7c0.5,0.5,0.7,1,0.7,1.7c0,0.3-0.1,0.7-0.2,1c-0.1,0.3-0.4,0.7-0.7,1
	c-0.3,0.4-0.9,0.9-1.6,1.5c-0.6,0.5-1,0.9-1.2,1.1c-0.2,0.2-0.3,0.4-0.4,0.6H34.6z M36,264.6l1.1-0.1c0.1,0.5,0.3,0.9,0.6,1.2
	c0.3,0.3,0.7,0.4,1.1,0.4c0.5,0,0.9-0.2,1.3-0.6c0.4-0.4,0.5-0.9,0.5-1.5c0-0.6-0.2-1.1-0.5-1.4c-0.3-0.4-0.8-0.5-1.3-0.5
	c-0.3,0-0.6,0.1-0.9,0.2c-0.3,0.2-0.5,0.4-0.6,0.6l-1-0.1l0.8-4.4h4.3v1h-3.4l-0.5,2.3c0.5-0.4,1-0.5,1.6-0.5c0.8,0,1.4,0.3,1.9,0.8
	c0.5,0.5,0.8,1.2,0.8,2c0,0.8-0.2,1.4-0.7,2c-0.6,0.7-1.3,1-2.2,1c-0.8,0-1.4-0.2-1.9-0.7C36.4,265.9,36.1,265.3,36,264.6z"/>
<path d="M19,192.9c0-1,0.1-1.8,0.3-2.5c0.2-0.6,0.5-1.1,0.9-1.4c0.4-0.3,0.9-0.5,1.6-0.5c0.5,0,0.9,0.1,1.2,0.3
	c0.4,0.2,0.6,0.5,0.9,0.8c0.2,0.3,0.4,0.8,0.5,1.3c0.1,0.5,0.2,1.2,0.2,2c0,1-0.1,1.8-0.3,2.4c-0.2,0.6-0.5,1.1-0.9,1.4
	c-0.4,0.3-0.9,0.5-1.6,0.5c-0.8,0-1.5-0.3-2-0.9C19.3,195.7,19,194.6,19,192.9z M20.1,192.9c0,1.4,0.2,2.3,0.5,2.8s0.7,0.7,1.2,0.7
	c0.5,0,0.9-0.2,1.2-0.7c0.3-0.5,0.5-1.4,0.5-2.8c0-1.4-0.2-2.4-0.5-2.8c-0.3-0.5-0.7-0.7-1.2-0.7c-0.5,0-0.9,0.2-1.2,0.6
	C20.3,190.6,20.1,191.5,20.1,192.9z M26.6,197.2V196h1.2v1.2H26.6z M29,194.9l1.1-0.1c0.1,0.5,0.3,0.9,0.6,1.2
	c0.3,0.3,0.7,0.4,1.1,0.4c0.5,0,0.9-0.2,1.3-0.6c0.4-0.4,0.5-0.9,0.5-1.5c0-0.6-0.2-1.1-0.5-1.4c-0.3-0.4-0.8-0.5-1.3-0.5
	c-0.3,0-0.6,0.1-0.9,0.2c-0.3,0.2-0.5,0.4-0.6,0.6l-1-0.1l0.8-4.4h4.3v1h-3.4l-0.5,2.3c0.5-0.4,1-0.5,1.6-0.5c0.8,0,1.4,0.3,1.9,0.8
	c0.5,0.5,0.8,1.2,0.8,2c0,0.8-0.2,1.4-0.7,2c-0.6,0.7-1.3,1-2.2,1c-0.8,0-1.4-0.2-1.9-0.7C29.4,196.2,29.1,195.7,29,194.9z
	 M36,192.9c0-1,0.1-1.8,0.3-2.5c0.2-0.6,0.5-1.1,0.9-1.4c0.4-0.3,0.9-0.5,1.6-0.5c0.5,0,0.9,0.1,1.2,0.3c0.4,0.2,0.6,0.5,0.9,0.8
	c0.2,0.3,0.4,0.8,0.5,1.3s0.2,1.2,0.2,2c0,1-0.1,1.8-0.3,2.4c-0.2,0.6-0.5,1.1-0.9,1.4c-0.4,0.3-0.9,0.5-1.6,0.5
	c-0.8,0-1.5-0.3-2-0.9C36.3,195.7,36,194.6,36,192.9z M37.1,192.9c0,1.4,0.2,2.3,0.5,2.8c0.3,0.5,0.7,0.7,1.2,0.7
	c0.5,0,0.9-0.2,1.2-0.7c0.3-0.5,0.5-1.4,0.5-2.8c0-1.4-0.2-2.4-0.5-2.8c-0.3-0.5-0.7-0.7-1.2-0.7c-0.5,0-0.9,0.2-1.2,0.6
	C37.3,190.6,37.1,191.5,37.1,192.9z"/>
<path d="M19,123.3c0-1,0.1-1.8,0.3-2.5c0.2-0.6,0.5-1.1,0.9-1.4c0.4-0.3,0.9-0.5,1.6-0.5c0.5,0,0.9,0.1,1.2,0.3
	c0.4,0.2,0.6,0.5,0.9,0.8c0.2,0.3,0.4,0.8,0.5,1.3c0.1,0.5,0.2,1.2,0.2,2c0,1-0.1,1.8-0.3,2.4c-0.2,0.6-0.5,1.1-0.9,1.4
	c-0.4,0.3-0.9,0.5-1.6,0.5c-0.8,0-1.5-0.3-2-0.9C19.3,126.1,19,124.9,19,123.3z M20.1,123.3c0,1.4,0.2,2.3,0.5,2.8
	c0.3,0.5,0.7,0.7,1.2,0.7c0.5,0,0.9-0.2,1.2-0.7c0.3-0.5,0.5-1.4,0.5-2.8c0-1.4-0.2-2.4-0.5-2.8c-0.3-0.5-0.7-0.7-1.2-0.7
	c-0.5,0-0.9,0.2-1.2,0.6C20.3,120.9,20.1,121.9,20.1,123.3z M26.6,127.6v-1.2h1.2v1.2H26.6z M29.1,120.1v-1h5.6v0.8
	c-0.5,0.6-1.1,1.4-1.6,2.3c-0.5,1-0.9,1.9-1.2,3c-0.2,0.7-0.4,1.5-0.4,2.4h-1.1c0-0.7,0.1-1.5,0.4-2.5c0.3-1,0.6-1.9,1.1-2.8
	c0.5-0.9,1-1.6,1.5-2.2H29.1z M36,125.3l1.1-0.1c0.1,0.5,0.3,0.9,0.6,1.2c0.3,0.3,0.7,0.4,1.1,0.4c0.5,0,0.9-0.2,1.3-0.6
	c0.4-0.4,0.5-0.9,0.5-1.5c0-0.6-0.2-1.1-0.5-1.4c-0.3-0.4-0.8-0.5-1.3-0.5c-0.3,0-0.6,0.1-0.9,0.2c-0.3,0.2-0.5,0.4-0.6,0.6l-1-0.1
	l0.8-4.4h4.3v1h-3.4l-0.5,2.3c0.5-0.4,1-0.5,1.6-0.5c0.8,0,1.4,0.3,1.9,0.8c0.5,0.5,0.8,1.2,0.8,2c0,0.8-0.2,1.4-0.7,2
	c-0.6,0.7-1.3,1-2.2,1c-0.8,0-1.4-0.2-1.9-0.7C36.4,126.6,36.1,126,36,125.3z"/>
<path d="M23,57.9h-1v-6.7c-0.3,0.2-0.6,0.5-1,0.7c-0.4,0.2-0.8,0.4-1.1,0.5v-1c0.6-0.3,1.1-0.6,1.5-1c0.4-0.4,0.8-0.8,1-1.2H23V57.9
	z M26.6,57.9v-1.2h1.2v1.2H26.6z M29,53.7c0-1,0.1-1.8,0.3-2.5c0.2-0.6,0.5-1.1,0.9-1.4c0.4-0.3,0.9-0.5,1.6-0.5
	c0.5,0,0.9,0.1,1.2,0.3c0.4,0.2,0.6,0.5,0.9,0.8c0.2,0.3,0.4,0.8,0.5,1.3s0.2,1.2,0.2,2c0,1-0.1,1.8-0.3,2.4
	c-0.2,0.6-0.5,1.1-0.9,1.4c-0.4,0.3-0.9,0.5-1.6,0.5c-0.8,0-1.5-0.3-2-0.9C29.3,56.5,29,55.3,29,53.7z M30.1,53.7
	c0,1.4,0.2,2.3,0.5,2.8c0.3,0.5,0.7,0.7,1.2,0.7c0.5,0,0.9-0.2,1.2-0.7c0.3-0.5,0.5-1.4,0.5-2.8c0-1.4-0.2-2.4-0.5-2.8
	c-0.3-0.5-0.7-0.7-1.2-0.7c-0.5,0-0.9,0.2-1.2,0.6C30.3,51.3,30.1,52.3,30.1,53.7z M36,53.7c0-1,0.1-1.8,0.3-2.5
	c0.2-0.6,0.5-1.1,0.9-1.4c0.4-0.3,0.9-0.5,1.6-0.5c0.5,0,0.9,0.1,1.2,0.3c0.4,0.2,0.6,0.5,0.9,0.8c0.2,0.3,0.4,0.8,0.5,1.3
	s0.2,1.2,0.2,2c0,1-0.1,1.8-0.3,2.4c-0.2,0.6-0.5,1.1-0.9,1.4c-0.4,0.3-0.9,0.5-1.6,0.5c-0.8,0-1.5-0.3-2-0.9
	C36.3,56.5,36,55.3,36,53.7z M37.1,53.7c0,1.4,0.2,2.3,0.5,2.8c0.3,0.5,0.7,0.7,1.2,0.7c0.5,0,0.9-0.2,1.2-0.7
	c0.3-0.5,0.5-1.4,0.5-2.8c0-1.4-0.2-2.4-0.5-2.8c-0.3-0.5-0.7-0.7-1.2-0.7c-0.5,0-0.9,0.2-1.2,0.6C37.3,51.3,37.1,52.3,37.1,53.7z"
	/>
<path d="M61.9,349.5v-7.6h-2.8v-1h6.8v1h-2.8v7.6H61.9z M66.6,342.1v-1.2h1.1v1.2H66.6z M66.6,349.5v-6.2h1.1v6.2H66.6z M69.6,349.5
	v-8.6h1.1v8.6H69.6z M72.6,349.5v-8.6h1.1v8.6H72.6z M75.6,342.1v-1.2h1.1v1.2H75.6z M75.6,349.5v-6.2h1.1v6.2H75.6z M78.6,349.5
	v-6.2h0.9v0.9c0.5-0.7,1.1-1,2-1c0.4,0,0.7,0.1,1,0.2c0.3,0.1,0.6,0.3,0.7,0.5c0.2,0.2,0.3,0.5,0.3,0.8c0,0.2,0,0.5,0,1v3.8h-1v-3.8
	c0-0.4,0-0.8-0.1-1c-0.1-0.2-0.2-0.4-0.4-0.5c-0.2-0.1-0.5-0.2-0.7-0.2c-0.4,0-0.8,0.1-1.2,0.4c-0.3,0.3-0.5,0.8-0.5,1.6v3.4H78.6z
	 M85.4,350l1,0.2c0,0.3,0.2,0.5,0.4,0.7c0.3,0.2,0.6,0.3,1.1,0.3c0.5,0,0.9-0.1,1.1-0.3c0.3-0.2,0.5-0.5,0.5-0.8
	c0.1-0.2,0.1-0.7,0.1-1.4c-0.5,0.5-1,0.8-1.7,0.8c-0.9,0-1.5-0.3-2-0.9c-0.5-0.6-0.7-1.4-0.7-2.2c0-0.6,0.1-1.1,0.3-1.6
	c0.2-0.5,0.5-0.9,0.9-1.2c0.4-0.3,0.9-0.4,1.4-0.4c0.7,0,1.3,0.3,1.8,0.9v-0.8h1v5.4c0,1-0.1,1.7-0.3,2.1c-0.2,0.4-0.5,0.7-0.9,1
	c-0.4,0.2-1,0.4-1.6,0.4c-0.7,0-1.3-0.2-1.8-0.5C85.6,351.1,85.4,350.6,85.4,350z M86.3,346.2c0,0.8,0.2,1.4,0.5,1.8
	c0.3,0.4,0.7,0.6,1.2,0.6c0.5,0,0.9-0.2,1.2-0.6c0.3-0.4,0.5-1,0.5-1.8c0-0.8-0.2-1.3-0.5-1.7c-0.3-0.4-0.7-0.6-1.2-0.6
	c-0.5,0-0.9,0.2-1.2,0.6C86.5,344.9,86.3,345.5,86.3,346.2z M91.8,349.6l2.5-8.9h0.8l-2.5,8.9H91.8z M95.4,346.7l1.1-0.1
	c0.1,0.4,0.2,0.8,0.4,1.1c0.2,0.3,0.5,0.5,0.9,0.7c0.4,0.2,0.8,0.3,1.3,0.2c0.4,0,0.8-0.1,1.1-0.2c0.3-0.1,0.6-0.3,0.7-0.5
	c0.2-0.2,0.2-0.5,0.2-0.7c0-0.3-0.1-0.5-0.2-0.7c-0.2-0.2-0.4-0.4-0.8-0.5c-0.2-0.1-0.8-0.2-1.5-0.4c-0.8-0.2-1.3-0.4-1.6-0.5
	c-0.4-0.2-0.7-0.5-0.9-0.8c-0.2-0.3-0.3-0.7-0.3-1.1c0-0.4,0.1-0.8,0.4-1.2c0.2-0.4,0.6-0.7,1.1-0.9c0.5-0.2,1-0.3,1.6-0.3
	c0.6,0,1.2,0.1,1.7,0.3c0.5,0.2,0.9,0.5,1.1,0.9c0.3,0.4,0.4,0.8,0.4,1.3l-1.1,0.1c-0.1-0.5-0.3-0.9-0.6-1.2
	c-0.3-0.3-0.8-0.4-1.5-0.4c-0.7,0-1.2,0.1-1.5,0.4c-0.3,0.3-0.5,0.6-0.5,0.9c0,0.3,0.1,0.6,0.3,0.8c0.2,0.2,0.8,0.4,1.7,0.6
	c0.9,0.2,1.6,0.4,1.9,0.5c0.5,0.2,0.9,0.5,1.1,0.9c0.2,0.3,0.4,0.8,0.4,1.2c0,0.5-0.1,0.9-0.4,1.3c-0.3,0.4-0.6,0.7-1.1,0.9
	c-0.5,0.2-1,0.3-1.7,0.3c-0.8,0-1.4-0.1-2-0.3c-0.5-0.2-0.9-0.6-1.2-1C95.5,347.8,95.4,347.3,95.4,346.7z M103.2,346.3
	c0-1.2,0.3-2,1-2.6c0.5-0.5,1.2-0.7,2-0.7c0.9,0,1.6,0.3,2.1,0.8c0.6,0.6,0.8,1.3,0.8,2.3c0,0.8-0.1,1.4-0.4,1.9
	c-0.2,0.5-0.6,0.8-1.1,1.1c-0.5,0.3-1,0.4-1.5,0.4c-0.9,0-1.6-0.3-2.1-0.8C103.5,348.2,103.2,347.4,103.2,346.3z M104.3,346.3
	c0,0.8,0.2,1.4,0.5,1.8c0.4,0.4,0.8,0.6,1.3,0.6c0.5,0,1-0.2,1.3-0.6c0.3-0.4,0.5-1,0.5-1.8c0-0.8-0.2-1.4-0.5-1.8
	c-0.3-0.4-0.8-0.6-1.3-0.6c-0.5,0-1,0.2-1.3,0.6C104.5,344.9,104.3,345.5,104.3,346.3z M110.6,342.1v-1.2h1.1v1.2H110.6z
	 M110.6,349.5v-6.2h1.1v6.2H110.6z M113.6,349.5v-8.6h1.1v8.6H113.6z M119.8,349.5v-8.6h3.2c0.6,0,1,0,1.3,0.1
	c0.4,0.1,0.8,0.2,1.1,0.4c0.3,0.2,0.5,0.5,0.7,0.8c0.2,0.4,0.3,0.7,0.3,1.2c0,0.7-0.2,1.3-0.7,1.9c-0.5,0.5-1.3,0.8-2.5,0.8h-2.2
	v3.5H119.8z M120.9,345h2.2c0.7,0,1.3-0.1,1.6-0.4c0.3-0.3,0.5-0.7,0.5-1.2c0-0.4-0.1-0.7-0.3-0.9c-0.2-0.3-0.4-0.4-0.7-0.5
	c-0.2-0.1-0.6-0.1-1.1-0.1h-2.2V345z M127.6,349.5v-6.2h1v0.9c0.2-0.4,0.5-0.7,0.7-0.9c0.2-0.1,0.4-0.2,0.7-0.2
	c0.4,0,0.7,0.1,1.1,0.3l-0.4,1c-0.3-0.2-0.5-0.2-0.8-0.2c-0.2,0-0.5,0.1-0.6,0.2c-0.2,0.1-0.3,0.3-0.4,0.6c-0.1,0.4-0.2,0.8-0.2,1.2
	v3.3H127.6z M135.9,347.5l1.1,0.1c-0.2,0.6-0.5,1.1-1,1.5c-0.5,0.4-1.1,0.5-1.8,0.5c-0.9,0-1.6-0.3-2.2-0.8
	c-0.5-0.6-0.8-1.3-0.8-2.4c0-1,0.3-1.8,0.8-2.4c0.5-0.6,1.2-0.9,2.1-0.9c0.8,0,1.5,0.3,2,0.8c0.5,0.6,0.8,1.4,0.8,2.4
	c0,0.1,0,0.2,0,0.3h-4.6c0,0.7,0.2,1.2,0.6,1.6c0.3,0.4,0.8,0.5,1.3,0.5c0.4,0,0.7-0.1,1-0.3C135.5,348.2,135.7,347.9,135.9,347.5z
	 M132.4,345.7h3.5c0-0.5-0.2-0.9-0.4-1.2c-0.3-0.4-0.8-0.6-1.3-0.6c-0.5,0-0.9,0.2-1.2,0.5C132.6,344.8,132.5,345.2,132.4,345.7z
	 M138.6,351.8v-8.6h1v0.8c0.2-0.3,0.5-0.5,0.8-0.7c0.3-0.2,0.6-0.2,1-0.2c0.5,0,1,0.1,1.4,0.4c0.4,0.3,0.7,0.7,0.9,1.2
	c0.2,0.5,0.3,1,0.3,1.6c0,0.6-0.1,1.2-0.3,1.7c-0.2,0.5-0.5,0.9-1,1.2c-0.4,0.3-0.9,0.4-1.4,0.4c-0.4,0-0.7-0.1-1-0.2
	c-0.3-0.2-0.5-0.3-0.7-0.6v3H138.6z M139.6,346.4c0,0.8,0.2,1.4,0.5,1.8c0.3,0.4,0.7,0.6,1.2,0.6c0.5,0,0.9-0.2,1.2-0.6
	c0.3-0.4,0.5-1,0.5-1.8c0-0.8-0.2-1.4-0.5-1.8c-0.3-0.4-0.7-0.6-1.2-0.6c-0.4,0-0.8,0.2-1.2,0.6C139.8,345,139.6,345.6,139.6,346.4z
	"/>
<path d="M186,346.7l1.1-0.1c0.1,0.4,0.2,0.8,0.4,1.1c0.2,0.3,0.5,0.5,0.9,0.7c0.4,0.2,0.8,0.3,1.3,0.2c0.4,0,0.8-0.1,1.1-0.2
	c0.3-0.1,0.6-0.3,0.7-0.5c0.2-0.2,0.2-0.5,0.2-0.7c0-0.3-0.1-0.5-0.2-0.7c-0.2-0.2-0.4-0.4-0.8-0.5c-0.2-0.1-0.8-0.2-1.5-0.4
	c-0.8-0.2-1.3-0.4-1.6-0.5c-0.4-0.2-0.7-0.5-0.9-0.8c-0.2-0.3-0.3-0.7-0.3-1.1c0-0.4,0.1-0.8,0.4-1.2c0.2-0.4,0.6-0.7,1.1-0.9
	c0.5-0.2,1-0.3,1.6-0.3c0.6,0,1.2,0.1,1.7,0.3c0.5,0.2,0.9,0.5,1.1,0.9c0.3,0.4,0.4,0.8,0.4,1.3l-1.1,0.1c-0.1-0.5-0.3-0.9-0.6-1.2
	c-0.3-0.3-0.8-0.4-1.5-0.4c-0.7,0-1.2,0.1-1.5,0.4c-0.3,0.3-0.5,0.6-0.5,0.9c0,0.3,0.1,0.6,0.3,0.8c0.2,0.2,0.8,0.4,1.7,0.6
	c0.9,0.2,1.6,0.4,1.9,0.5c0.5,0.2,0.9,0.5,1.1,0.9c0.2,0.3,0.4,0.8,0.4,1.2c0,0.5-0.1,0.9-0.4,1.3c-0.3,0.4-0.6,0.7-1.1,0.9
	c-0.5,0.2-1,0.3-1.7,0.3c-0.8,0-1.4-0.1-2-0.3c-0.5-0.2-0.9-0.6-1.2-1C186.1,347.8,186,347.3,186,346.7z M198.5,347.5l1.1,0.1
	c-0.2,0.6-0.5,1.1-1,1.5c-0.5,0.4-1.1,0.5-1.8,0.5c-0.9,0-1.6-0.3-2.2-0.8c-0.5-0.6-0.8-1.3-0.8-2.4c0-1,0.3-1.8,0.8-2.4
	c0.5-0.6,1.2-0.9,2.1-0.9c0.8,0,1.5,0.3,2,0.8c0.5,0.6,0.8,1.4,0.8,2.4c0,0.1,0,0.2,0,0.3H195c0,0.7,0.2,1.2,0.6,1.6
	c0.3,0.4,0.8,0.5,1.3,0.5c0.4,0,0.7-0.1,1-0.3C198.1,348.2,198.3,347.9,198.5,347.5z M195,345.7h3.5c0-0.5-0.2-0.9-0.4-1.2
	c-0.3-0.4-0.8-0.6-1.3-0.6c-0.5,0-0.9,0.2-1.2,0.5C195.2,344.8,195,345.2,195,345.7z M205.5,347.5l1.1,0.1c-0.2,0.6-0.5,1.1-1,1.5
	c-0.5,0.4-1.1,0.5-1.8,0.5c-0.9,0-1.6-0.3-2.2-0.8c-0.5-0.6-0.8-1.3-0.8-2.4c0-1,0.3-1.8,0.8-2.4c0.5-0.6,1.2-0.9,2.1-0.9
	c0.8,0,1.5,0.3,2,0.8c0.5,0.6,0.8,1.4,0.8,2.4c0,0.1,0,0.2,0,0.3H202c0,0.7,0.2,1.2,0.6,1.6c0.3,0.4,0.8,0.5,1.3,0.5
	c0.4,0,0.7-0.1,1-0.3C205.1,348.2,205.3,347.9,205.5,347.5z M202,345.7h3.5c0-0.5-0.2-0.9-0.4-1.2c-0.3-0.4-0.8-0.6-1.3-0.6
	c-0.5,0-0.9,0.2-1.2,0.5C202.2,344.8,202,345.2,202,345.7z M212.2,349.5v-0.8c-0.4,0.6-1,0.9-1.7,0.9c-0.5,0-1-0.1-1.4-0.4
	c-0.4-0.3-0.7-0.7-1-1.2c-0.2-0.5-0.3-1.1-0.3-1.7c0-0.6,0.1-1.2,0.3-1.7c0.2-0.5,0.5-0.9,0.9-1.2c0.4-0.3,0.9-0.4,1.4-0.4
	c0.4,0,0.7,0.1,1,0.2c0.3,0.2,0.5,0.4,0.7,0.6v-3.1h1v8.6H212.2z M208.9,346.3c0,0.8,0.2,1.4,0.5,1.8c0.3,0.4,0.7,0.6,1.2,0.6
	c0.5,0,0.8-0.2,1.2-0.6c0.3-0.4,0.5-0.9,0.5-1.7c0-0.9-0.2-1.5-0.5-1.9c-0.3-0.4-0.7-0.6-1.2-0.6c-0.5,0-0.9,0.2-1.2,0.6
	C209.1,344.9,208.9,345.5,208.9,346.3z M215.2,342.1v-1.2h1.1v1.2H215.2z M215.2,349.5v-6.2h1.1v6.2H215.2z M218.2,349.5v-6.2h0.9
	v0.9c0.5-0.7,1.1-1,2-1c0.4,0,0.7,0.1,1,0.2c0.3,0.1,0.6,0.3,0.7,0.5c0.2,0.2,0.3,0.5,0.3,0.8c0,0.2,0,0.5,0,1v3.8h-1v-3.8
	c0-0.4,0-0.8-0.1-1c-0.1-0.2-0.2-0.4-0.4-0.5c-0.2-0.1-0.5-0.2-0.7-0.2c-0.4,0-0.8,0.1-1.2,0.4c-0.3,0.3-0.5,0.8-0.5,1.6v3.4H218.2z
	 M225,350l1,0.2c0,0.3,0.2,0.5,0.4,0.7c0.3,0.2,0.6,0.3,1.1,0.3c0.5,0,0.9-0.1,1.1-0.3c0.3-0.2,0.5-0.5,0.5-0.8
	c0.1-0.2,0.1-0.7,0.1-1.4c-0.5,0.5-1,0.8-1.7,0.8c-0.9,0-1.5-0.3-2-0.9c-0.5-0.6-0.7-1.4-0.7-2.2c0-0.6,0.1-1.1,0.3-1.6
	c0.2-0.5,0.5-0.9,0.9-1.2c0.4-0.3,0.9-0.4,1.4-0.4c0.7,0,1.3,0.3,1.8,0.9v-0.8h1v5.4c0,1-0.1,1.7-0.3,2.1c-0.2,0.4-0.5,0.7-0.9,1
	c-0.4,0.2-1,0.4-1.6,0.4c-0.7,0-1.3-0.2-1.8-0.5C225.2,351.1,225,350.6,225,350z M225.9,346.2c0,0.8,0.2,1.4,0.5,1.8
	c0.3,0.4,0.7,0.6,1.2,0.6c0.5,0,0.9-0.2,1.2-0.6c0.3-0.4,0.5-1,0.5-1.8c0-0.8-0.2-1.3-0.5-1.7c-0.3-0.4-0.7-0.6-1.2-0.6
	c-0.5,0-0.9,0.2-1.2,0.6C226.1,344.9,225.9,345.5,225.9,346.2z"/>
<path d="M280.6,349.5v-8.6h1.1v8.6H280.6z M283.3,349.5v-6.2h0.9v0.9c0.5-0.7,1.1-1,2-1c0.4,0,0.7,0.1,1,0.2
	c0.3,0.1,0.6,0.3,0.7,0.5c0.2,0.2,0.3,0.5,0.3,0.8c0,0.2,0,0.5,0,1v3.8h-1v-3.8c0-0.4,0-0.8-0.1-1c-0.1-0.2-0.2-0.4-0.4-0.5
	c-0.2-0.1-0.5-0.2-0.7-0.2c-0.4,0-0.8,0.1-1.2,0.4c-0.3,0.3-0.5,0.8-0.5,1.6v3.4H283.3z M290.3,342.1v-1.2h1.1v1.2H290.3z
	 M290.3,349.5v-6.2h1.1v6.2H290.3z M295.6,348.5l0.2,0.9c-0.3,0.1-0.6,0.1-0.8,0.1c-0.4,0-0.7-0.1-0.9-0.2c-0.2-0.1-0.4-0.3-0.5-0.5
	c-0.1-0.2-0.1-0.6-0.1-1.2V344h-0.8v-0.8h0.8v-1.5l1-0.6v2.2h1.1v0.8h-1.1v3.6c0,0.3,0,0.5,0,0.6c0,0.1,0.1,0.2,0.2,0.2
	c0.1,0.1,0.2,0.1,0.4,0.1C295.2,348.5,295.4,348.5,295.6,348.5z M296.3,342.1v-1.2h1.1v1.2H296.3z M296.3,349.5v-6.2h1.1v6.2H296.3z
	 M303.4,348.7c-0.4,0.3-0.8,0.6-1.1,0.7c-0.4,0.1-0.7,0.2-1.2,0.2c-0.7,0-1.2-0.2-1.6-0.5c-0.4-0.3-0.5-0.8-0.5-1.3
	c0-0.3,0.1-0.6,0.2-0.8c0.1-0.3,0.3-0.5,0.5-0.6c0.2-0.2,0.5-0.3,0.8-0.3c0.2-0.1,0.5-0.1,0.9-0.2c0.8-0.1,1.5-0.2,1.9-0.4
	c0-0.1,0-0.2,0-0.3c0-0.4-0.1-0.7-0.3-0.9c-0.3-0.2-0.7-0.3-1.2-0.3c-0.5,0-0.9,0.1-1.1,0.3c-0.2,0.2-0.4,0.5-0.5,0.9l-1-0.1
	c0.1-0.4,0.2-0.8,0.5-1.1c0.2-0.3,0.5-0.5,0.9-0.6c0.4-0.1,0.9-0.2,1.4-0.2c0.5,0,1,0.1,1.3,0.2c0.3,0.1,0.6,0.3,0.7,0.5
	c0.2,0.2,0.3,0.4,0.3,0.7c0,0.2,0,0.5,0,1v1.4c0,1,0,1.6,0.1,1.9c0.1,0.3,0.1,0.5,0.3,0.8h-1.1C303.5,349.2,303.4,349,303.4,348.7z
	 M303.3,346.3c-0.4,0.2-1,0.3-1.7,0.4c-0.4,0.1-0.7,0.1-0.9,0.2c-0.2,0.1-0.3,0.2-0.4,0.3c-0.1,0.1-0.1,0.3-0.1,0.5
	c0,0.3,0.1,0.5,0.3,0.7c0.2,0.2,0.5,0.3,0.9,0.3c0.4,0,0.8-0.1,1.1-0.3c0.3-0.2,0.6-0.4,0.7-0.7c0.1-0.2,0.2-0.6,0.2-1V346.3z
	 M306.3,349.5v-8.6h1.1v8.6H306.3z M316.5,346.1v-1l3.6,0v3.2c-0.6,0.4-1.1,0.8-1.7,1c-0.6,0.2-1.2,0.3-1.8,0.3
	c-0.8,0-1.6-0.2-2.3-0.5c-0.7-0.4-1.2-0.9-1.6-1.6c-0.3-0.7-0.5-1.5-0.5-2.3c0-0.8,0.2-1.6,0.5-2.3c0.4-0.7,0.9-1.3,1.5-1.6
	c0.7-0.4,1.4-0.5,2.3-0.5c0.6,0,1.2,0.1,1.7,0.3s0.9,0.5,1.2,0.8c0.3,0.4,0.5,0.8,0.7,1.4l-1,0.3c-0.1-0.4-0.3-0.8-0.5-1
	c-0.2-0.2-0.5-0.4-0.8-0.6c-0.4-0.2-0.7-0.2-1.2-0.2c-0.5,0-1,0.1-1.4,0.2c-0.4,0.2-0.7,0.4-0.9,0.6c-0.2,0.3-0.4,0.5-0.5,0.9
	c-0.2,0.5-0.3,1.1-0.3,1.7c0,0.8,0.1,1.4,0.4,1.9c0.3,0.5,0.7,0.9,1.2,1.1c0.5,0.3,1,0.4,1.6,0.4c0.5,0,1-0.1,1.4-0.3
	c0.5-0.2,0.8-0.4,1.1-0.6v-1.6H316.5z M321.3,349.5v-6.2h1v0.9c0.2-0.4,0.5-0.7,0.7-0.9c0.2-0.1,0.4-0.2,0.7-0.2
	c0.4,0,0.7,0.1,1.1,0.3l-0.4,1c-0.3-0.2-0.5-0.2-0.8-0.2c-0.2,0-0.5,0.1-0.6,0.2c-0.2,0.1-0.3,0.3-0.4,0.6c-0.1,0.4-0.2,0.8-0.2,1.2
	v3.3H321.3z M324.9,346.3c0-1.2,0.3-2,1-2.6c0.5-0.5,1.2-0.7,2-0.7c0.9,0,1.6,0.3,2.1,0.8c0.6,0.6,0.8,1.3,0.8,2.3
	c0,0.8-0.1,1.4-0.4,1.9c-0.2,0.5-0.6,0.8-1.1,1.1c-0.5,0.3-1,0.4-1.5,0.4c-0.9,0-1.6-0.3-2.1-0.8
	C325.2,348.2,324.9,347.4,324.9,346.3z M326,346.3c0,0.8,0.2,1.4,0.5,1.8c0.4,0.4,0.8,0.6,1.3,0.6c0.5,0,1-0.2,1.3-0.6
	c0.3-0.4,0.5-1,0.5-1.8c0-0.8-0.2-1.4-0.5-1.8c-0.3-0.4-0.8-0.6-1.3-0.6c-0.5,0-1,0.2-1.3,0.6C326.2,344.9,326,345.5,326,346.3z
	 M333.4,349.5l-1.9-6.2h1.1l1,3.6l0.4,1.3c0-0.1,0.1-0.5,0.3-1.3l1-3.6h1.1l0.9,3.6l0.3,1.2l0.4-1.2l1.1-3.6h1l-2,6.2H337l-1-3.7
	l-0.2-1l-1.2,4.8H333.4z M343.6,348.5l0.2,0.9c-0.3,0.1-0.6,0.1-0.8,0.1c-0.4,0-0.7-0.1-0.9-0.2c-0.2-0.1-0.4-0.3-0.5-0.5
	c-0.1-0.2-0.1-0.6-0.1-1.2V344h-0.8v-0.8h0.8v-1.5l1-0.6v2.2h1.1v0.8h-1.1v3.6c0,0.3,0,0.5,0,0.6c0,0.1,0.1,0.2,0.2,0.2
	c0.1,0.1,0.2,0.1,0.4,0.1C343.2,348.5,343.4,348.5,343.6,348.5z M344.3,349.5v-8.6h1v3.1c0.5-0.6,1.1-0.8,1.9-0.8
	c0.5,0,0.9,0.1,1.2,0.3c0.3,0.2,0.6,0.4,0.7,0.8c0.1,0.3,0.2,0.8,0.2,1.4v3.9h-1v-3.9c0-0.5-0.1-0.9-0.3-1.2c-0.2-0.2-0.6-0.4-1-0.4
	c-0.3,0-0.6,0.1-0.9,0.2c-0.3,0.2-0.5,0.4-0.6,0.7c-0.1,0.3-0.2,0.7-0.2,1.1v3.4H344.3z"/>
<path d="M399.5,349.5l-2.3-8.6h1.2l1.3,5.6c0.1,0.6,0.3,1.2,0.4,1.8c0.2-0.9,0.3-1.4,0.4-1.6l1.6-5.8h1.4l1.2,4.3
	c0.3,1.1,0.5,2.1,0.7,3c0.1-0.5,0.2-1.2,0.4-1.9l1.3-5.5h1.1l-2.3,8.6h-1.1l-1.8-6.5c-0.2-0.5-0.2-0.9-0.3-1c-0.1,0.4-0.2,0.7-0.2,1
	l-1.8,6.5H399.5z M413.1,347.5l1.1,0.1c-0.2,0.6-0.5,1.1-1,1.5c-0.5,0.4-1.1,0.5-1.8,0.5c-0.9,0-1.6-0.3-2.2-0.8
	c-0.5-0.6-0.8-1.3-0.8-2.4c0-1,0.3-1.8,0.8-2.4c0.5-0.6,1.2-0.9,2.1-0.9c0.8,0,1.5,0.3,2,0.8c0.5,0.6,0.8,1.4,0.8,2.4
	c0,0.1,0,0.2,0,0.3h-4.6c0,0.7,0.2,1.2,0.6,1.6c0.3,0.4,0.8,0.5,1.3,0.5c0.4,0,0.7-0.1,1-0.3C412.8,348.2,413,347.9,413.1,347.5z
	 M409.7,345.7h3.5c0-0.5-0.2-0.9-0.4-1.2c-0.3-0.4-0.8-0.6-1.3-0.6c-0.5,0-0.9,0.2-1.2,0.5C409.9,344.8,409.7,345.2,409.7,345.7z
	 M420.1,347.5l1.1,0.1c-0.2,0.6-0.5,1.1-1,1.5c-0.5,0.4-1.1,0.5-1.8,0.5c-0.9,0-1.6-0.3-2.2-0.8c-0.5-0.6-0.8-1.3-0.8-2.4
	c0-1,0.3-1.8,0.8-2.4c0.5-0.6,1.2-0.9,2.1-0.9c0.8,0,1.5,0.3,2,0.8c0.5,0.6,0.8,1.4,0.8,2.4c0,0.1,0,0.2,0,0.3h-4.6
	c0,0.7,0.2,1.2,0.6,1.6c0.3,0.4,0.8,0.5,1.3,0.5c0.4,0,0.7-0.1,1-0.3C419.8,348.2,420,347.9,420.1,347.5z M416.7,345.7h3.5
	c0-0.5-0.2-0.9-0.4-1.2c-0.3-0.4-0.8-0.6-1.3-0.6c-0.5,0-0.9,0.2-1.2,0.5C416.9,344.8,416.7,345.2,416.7,345.7z M426.9,349.5v-0.8
	c-0.4,0.6-1,0.9-1.7,0.9c-0.5,0-1-0.1-1.4-0.4c-0.4-0.3-0.7-0.7-1-1.2c-0.2-0.5-0.3-1.1-0.3-1.7c0-0.6,0.1-1.2,0.3-1.7
	c0.2-0.5,0.5-0.9,0.9-1.2c0.4-0.3,0.9-0.4,1.4-0.4c0.4,0,0.7,0.1,1,0.2c0.3,0.2,0.5,0.4,0.7,0.6v-3.1h1v8.6H426.9z M423.6,346.3
	c0,0.8,0.2,1.4,0.5,1.8c0.3,0.4,0.7,0.6,1.2,0.6c0.5,0,0.8-0.2,1.2-0.6c0.3-0.4,0.5-0.9,0.5-1.7c0-0.9-0.2-1.5-0.5-1.9
	c-0.3-0.4-0.7-0.6-1.2-0.6c-0.5,0-0.9,0.2-1.2,0.6C423.7,344.9,423.6,345.5,423.6,346.3z M429.9,342.1v-1.2h1.1v1.2H429.9z
	 M429.9,349.5v-6.2h1.1v6.2H429.9z M432.9,349.5v-6.2h0.9v0.9c0.5-0.7,1.1-1,2-1c0.4,0,0.7,0.1,1,0.2c0.3,0.1,0.6,0.3,0.7,0.5
	c0.2,0.2,0.3,0.5,0.3,0.8c0,0.2,0,0.5,0,1v3.8h-1v-3.8c0-0.4,0-0.8-0.1-1c-0.1-0.2-0.2-0.4-0.4-0.5c-0.2-0.1-0.5-0.2-0.7-0.2
	c-0.4,0-0.8,0.1-1.2,0.4c-0.3,0.3-0.5,0.8-0.5,1.6v3.4H432.9z M439.7,350l1,0.2c0,0.3,0.2,0.5,0.4,0.7c0.3,0.2,0.6,0.3,1.1,0.3
	c0.5,0,0.9-0.1,1.1-0.3c0.3-0.2,0.5-0.5,0.5-0.8c0.1-0.2,0.1-0.7,0.1-1.4c-0.5,0.5-1,0.8-1.7,0.8c-0.9,0-1.5-0.3-2-0.9
	c-0.5-0.6-0.7-1.4-0.7-2.2c0-0.6,0.1-1.1,0.3-1.6c0.2-0.5,0.5-0.9,0.9-1.2c0.4-0.3,0.9-0.4,1.4-0.4c0.7,0,1.3,0.3,1.8,0.9v-0.8h1
	v5.4c0,1-0.1,1.7-0.3,2.1c-0.2,0.4-0.5,0.7-0.9,1c-0.4,0.2-1,0.4-1.6,0.4c-0.7,0-1.3-0.2-1.8-0.5C439.9,351.1,439.7,350.6,439.7,350
	z M440.5,346.2c0,0.8,0.2,1.4,0.5,1.8c0.3,0.4,0.7,0.6,1.2,0.6c0.5,0,0.9-0.2,1.2-0.6c0.3-0.4,0.5-1,0.5-1.8c0-0.8-0.2-1.3-0.5-1.7
	c-0.3-0.4-0.7-0.6-1.2-0.6c-0.5,0-0.9,0.2-1.2,0.6C440.7,344.9,440.5,345.5,440.5,346.2z"/>
<path d="M499.6,349.5v-8.6h1.1v3.5h4.5v-3.5h1.1v8.6h-1.1v-4h-4.5v4H499.6z M512.5,348.7c-0.4,0.3-0.8,0.6-1.1,0.7
	c-0.4,0.1-0.7,0.2-1.2,0.2c-0.7,0-1.2-0.2-1.6-0.5c-0.4-0.3-0.5-0.8-0.5-1.3c0-0.3,0.1-0.6,0.2-0.8c0.1-0.3,0.3-0.5,0.5-0.6
	c0.2-0.2,0.5-0.3,0.8-0.3c0.2-0.1,0.5-0.1,0.9-0.2c0.8-0.1,1.5-0.2,1.9-0.4c0-0.1,0-0.2,0-0.3c0-0.4-0.1-0.7-0.3-0.9
	c-0.3-0.2-0.7-0.3-1.2-0.3c-0.5,0-0.9,0.1-1.1,0.3c-0.2,0.2-0.4,0.5-0.5,0.9l-1-0.1c0.1-0.4,0.2-0.8,0.5-1.1
	c0.2-0.3,0.5-0.5,0.9-0.6c0.4-0.1,0.9-0.2,1.4-0.2c0.5,0,1,0.1,1.3,0.2c0.3,0.1,0.6,0.3,0.7,0.5c0.2,0.2,0.3,0.4,0.3,0.7
	c0,0.2,0,0.5,0,1v1.4c0,1,0,1.6,0.1,1.9c0.1,0.3,0.1,0.5,0.3,0.8h-1.1C512.6,349.2,512.6,349,512.5,348.7z M512.4,346.3
	c-0.4,0.2-1,0.3-1.7,0.4c-0.4,0.1-0.7,0.1-0.9,0.2c-0.2,0.1-0.3,0.2-0.4,0.3c-0.1,0.1-0.1,0.3-0.1,0.5c0,0.3,0.1,0.5,0.3,0.7
	c0.2,0.2,0.5,0.3,0.9,0.3c0.4,0,0.8-0.1,1.1-0.3c0.3-0.2,0.6-0.4,0.7-0.7c0.1-0.2,0.2-0.6,0.2-1V346.3z M515.4,349.5v-6.2h1v0.9
	c0.2-0.4,0.5-0.7,0.7-0.9c0.2-0.1,0.4-0.2,0.7-0.2c0.4,0,0.7,0.1,1.1,0.3l-0.4,1c-0.3-0.2-0.5-0.2-0.8-0.2c-0.2,0-0.5,0.1-0.6,0.2
	c-0.2,0.1-0.3,0.3-0.4,0.6c-0.1,0.4-0.2,0.8-0.2,1.2v3.3H515.4z M521.2,349.5l-2.4-6.2h1.1l1.3,3.7c0.1,0.4,0.3,0.8,0.4,1.2
	c0.1-0.3,0.2-0.7,0.4-1.2l1.4-3.8h1.1l-2.4,6.2H521.2z M528.7,347.5l1.1,0.1c-0.2,0.6-0.5,1.1-1,1.5c-0.5,0.4-1.1,0.5-1.8,0.5
	c-0.9,0-1.6-0.3-2.2-0.8c-0.5-0.6-0.8-1.3-0.8-2.4c0-1,0.3-1.8,0.8-2.4c0.5-0.6,1.2-0.9,2.1-0.9c0.8,0,1.5,0.3,2,0.8
	c0.5,0.6,0.8,1.4,0.8,2.4c0,0.1,0,0.2,0,0.3h-4.6c0,0.7,0.2,1.2,0.6,1.6c0.3,0.4,0.8,0.5,1.3,0.5c0.4,0,0.7-0.1,1-0.3
	C528.3,348.2,528.6,347.9,528.7,347.5z M525.3,345.7h3.5c0-0.5-0.2-0.9-0.4-1.2c-0.3-0.4-0.8-0.6-1.3-0.6c-0.5,0-0.9,0.2-1.2,0.5
	C525.5,344.8,525.3,345.2,525.3,345.7z M531,347.6l1-0.2c0.1,0.4,0.2,0.7,0.5,1c0.3,0.2,0.7,0.3,1.1,0.3c0.5,0,0.8-0.1,1.1-0.3
	c0.2-0.2,0.4-0.4,0.4-0.7c0-0.2-0.1-0.4-0.3-0.6c-0.1-0.1-0.5-0.2-1.1-0.4c-0.8-0.2-1.3-0.4-1.6-0.5c-0.3-0.1-0.5-0.3-0.7-0.6
	c-0.2-0.2-0.2-0.5-0.2-0.8c0-0.3,0.1-0.5,0.2-0.8c0.1-0.2,0.3-0.4,0.5-0.6c0.2-0.1,0.4-0.2,0.7-0.3c0.3-0.1,0.6-0.1,0.9-0.1
	c0.5,0,0.9,0.1,1.3,0.2c0.4,0.1,0.7,0.3,0.8,0.6c0.2,0.2,0.3,0.6,0.4,1l-1,0.1c0-0.3-0.2-0.6-0.4-0.7c-0.2-0.2-0.5-0.3-1-0.3
	c-0.5,0-0.8,0.1-1,0.2c-0.2,0.2-0.3,0.3-0.3,0.6c0,0.1,0,0.3,0.1,0.4c0.1,0.1,0.2,0.2,0.4,0.3c0.1,0,0.4,0.1,0.9,0.3
	c0.8,0.2,1.3,0.4,1.6,0.5c0.3,0.1,0.5,0.3,0.7,0.5c0.2,0.2,0.2,0.5,0.2,0.9c0,0.4-0.1,0.7-0.3,1c-0.2,0.3-0.5,0.5-0.9,0.7
	c-0.4,0.2-0.8,0.3-1.3,0.2c-0.8,0-1.4-0.2-1.9-0.5C531.4,348.7,531.1,348.2,531,347.6z M540.8,348.5l0.2,0.9
	c-0.3,0.1-0.6,0.1-0.8,0.1c-0.4,0-0.7-0.1-0.9-0.2c-0.2-0.1-0.4-0.3-0.5-0.5c-0.1-0.2-0.1-0.6-0.1-1.2V344h-0.8v-0.8h0.8v-1.5l1-0.6
	v2.2h1.1v0.8h-1.1v3.6c0,0.3,0,0.5,0,0.6c0,0.1,0.1,0.2,0.2,0.2c0.1,0.1,0.2,0.1,0.4,0.1C540.4,348.5,540.6,348.5,540.8,348.5z
	 M541.5,342.1v-1.2h1.1v1.2H541.5z M541.5,349.5v-6.2h1.1v6.2H541.5z M544.5,349.5v-6.2h0.9v0.9c0.5-0.7,1.1-1,2-1
	c0.4,0,0.7,0.1,1,0.2c0.3,0.1,0.6,0.3,0.7,0.5c0.2,0.2,0.3,0.5,0.3,0.8c0,0.2,0,0.5,0,1v3.8h-1v-3.8c0-0.4,0-0.8-0.1-1
	c-0.1-0.2-0.2-0.4-0.4-0.5c-0.2-0.1-0.5-0.2-0.7-0.2c-0.4,0-0.8,0.1-1.2,0.4c-0.3,0.3-0.5,0.8-0.5,1.6v3.4H544.5z M551.3,350l1,0.2
	c0,0.3,0.2,0.5,0.4,0.7c0.3,0.2,0.6,0.3,1.1,0.3c0.5,0,0.9-0.1,1.1-0.3c0.3-0.2,0.5-0.5,0.5-0.8c0.1-0.2,0.1-0.7,0.1-1.4
	c-0.5,0.5-1,0.8-1.7,0.8c-0.9,0-1.5-0.3-2-0.9c-0.5-0.6-0.7-1.4-0.7-2.2c0-0.6,0.1-1.1,0.3-1.6c0.2-0.5,0.5-0.9,0.9-1.2
	c0.4-0.3,0.9-0.4,1.4-0.4c0.7,0,1.3,0.3,1.8,0.9v-0.8h1v5.4c0,1-0.1,1.7-0.3,2.1c-0.2,0.4-0.5,0.7-0.9,1c-0.4,0.2-1,0.4-1.6,0.4
	c-0.7,0-1.3-0.2-1.8-0.5C551.5,351.1,551.2,350.6,551.3,350z M552.1,346.2c0,0.8,0.2,1.4,0.5,1.8c0.3,0.4,0.7,0.6,1.2,0.6
	c0.5,0,0.9-0.2,1.2-0.6c0.3-0.4,0.5-1,0.5-1.8c0-0.8-0.2-1.3-0.5-1.7c-0.3-0.4-0.7-0.6-1.2-0.6c-0.5,0-0.9,0.2-1.2,0.6
	C552.3,344.9,552.1,345.5,552.1,346.2z"/>
<path d="M19.7,31.5v-10h6.8v1.2H21v3.1h4.7V27H21v4.5H19.7z M33.2,30.7c-0.4,0.4-0.9,0.7-1.3,0.8c-0.4,0.2-0.9,0.2-1.4,0.2
	c-0.8,0-1.4-0.2-1.8-0.6c-0.4-0.4-0.6-0.9-0.6-1.5c0-0.4,0.1-0.7,0.2-1c0.2-0.3,0.4-0.5,0.6-0.7c0.3-0.2,0.6-0.3,0.9-0.4
	c0.2-0.1,0.6-0.1,1.1-0.2c1-0.1,1.7-0.3,2.2-0.4c0-0.2,0-0.3,0-0.3c0-0.5-0.1-0.9-0.3-1.1c-0.3-0.3-0.8-0.4-1.4-0.4
	c-0.6,0-1,0.1-1.3,0.3c-0.3,0.2-0.5,0.6-0.6,1.1l-1.2-0.2c0.1-0.5,0.3-0.9,0.5-1.2c0.3-0.3,0.6-0.6,1.1-0.7c0.5-0.2,1-0.3,1.7-0.3
	c0.6,0,1.1,0.1,1.5,0.2c0.4,0.1,0.7,0.3,0.8,0.5c0.2,0.2,0.3,0.5,0.4,0.8c0,0.2,0.1,0.6,0.1,1.1v1.6c0,1.1,0,1.9,0.1,2.2
	c0.1,0.3,0.2,0.6,0.3,0.9h-1.3C33.3,31.3,33.2,31,33.2,30.7z M33.1,27.9c-0.4,0.2-1.1,0.3-2,0.5c-0.5,0.1-0.9,0.2-1.1,0.2
	c-0.2,0.1-0.4,0.2-0.5,0.4c-0.1,0.2-0.2,0.4-0.2,0.6c0,0.3,0.1,0.6,0.4,0.8c0.2,0.2,0.6,0.3,1.1,0.3c0.5,0,0.9-0.1,1.3-0.3
	c0.4-0.2,0.6-0.5,0.8-0.9c0.1-0.3,0.2-0.7,0.2-1.2V27.9z M36.5,31.5v-7.3h1.1v1.1c0.3-0.5,0.5-0.9,0.8-1c0.2-0.2,0.5-0.3,0.8-0.2
	c0.4,0,0.8,0.1,1.3,0.4L40,25.7c-0.3-0.2-0.6-0.3-0.9-0.3c-0.3,0-0.5,0.1-0.7,0.2c-0.2,0.2-0.4,0.4-0.5,0.7
	c-0.1,0.4-0.2,0.9-0.2,1.4v3.8H36.5z M41.5,31.5v-7.3h1.1v1c0.2-0.4,0.5-0.7,0.9-0.9c0.4-0.2,0.8-0.3,1.3-0.3c0.5,0,1,0.1,1.3,0.3
	c0.3,0.2,0.6,0.5,0.7,0.9c0.6-0.8,1.3-1.3,2.2-1.3c0.7,0,1.3,0.2,1.7,0.6c0.4,0.4,0.6,1,0.6,1.8v5h-1.2V27c0-0.5,0-0.8-0.1-1.1
	c-0.1-0.2-0.2-0.4-0.4-0.5c-0.2-0.1-0.5-0.2-0.7-0.2c-0.5,0-0.9,0.2-1.3,0.5C47.2,26,47,26.6,47,27.3v4.2h-1.2v-4.7
	c0-0.5-0.1-0.9-0.3-1.2c-0.2-0.3-0.5-0.4-1-0.4c-0.3,0-0.7,0.1-1,0.3c-0.3,0.2-0.5,0.4-0.6,0.8c-0.1,0.3-0.2,0.8-0.2,1.5v3.8H41.5z
	 M57.4,29.2l1.3,0.2c-0.2,0.7-0.6,1.3-1.1,1.8c-0.5,0.4-1.2,0.6-2.1,0.6c-1.1,0-1.9-0.3-2.5-1c-0.6-0.7-0.9-1.6-0.9-2.8
	c0-1.2,0.3-2.2,0.9-2.8c0.6-0.7,1.5-1,2.5-1c1,0,1.8,0.3,2.4,1c0.6,0.7,0.9,1.6,0.9,2.8c0,0.1,0,0.2,0,0.3h-5.4
	c0.1,0.8,0.3,1.4,0.7,1.8c0.4,0.4,0.9,0.6,1.5,0.6c0.4,0,0.8-0.1,1.1-0.4C57,30.1,57.3,29.7,57.4,29.2z M53.4,27.2h4
	c-0.1-0.6-0.2-1.1-0.5-1.4c-0.4-0.5-0.9-0.7-1.5-0.7c-0.6,0-1.1,0.2-1.4,0.6C53.7,26.1,53.5,26.6,53.4,27.2z M60.5,31.5v-7.3h1.1
	v1.1c0.3-0.5,0.5-0.9,0.8-1c0.2-0.2,0.5-0.3,0.8-0.2c0.4,0,0.8,0.1,1.3,0.4L64,25.7c-0.3-0.2-0.6-0.3-0.9-0.3
	c-0.3,0-0.5,0.1-0.7,0.2c-0.2,0.2-0.4,0.4-0.5,0.7c-0.1,0.4-0.2,0.9-0.2,1.4v3.8H60.5z M74.3,27.6v-1.2h4.2v3.7
	c-0.7,0.5-1.3,0.9-2,1.2c-0.7,0.3-1.4,0.4-2.1,0.4c-1,0-1.9-0.2-2.7-0.6c-0.8-0.4-1.4-1-1.8-1.8c-0.4-0.8-0.6-1.7-0.6-2.7
	c0-1,0.2-1.9,0.6-2.7c0.4-0.9,1-1.5,1.8-1.9c0.8-0.4,1.7-0.6,2.7-0.6c0.7,0,1.4,0.1,2,0.4c0.6,0.2,1.1,0.6,1.4,1
	c0.3,0.4,0.6,1,0.8,1.6l-1.2,0.3c-0.2-0.5-0.3-0.9-0.6-1.2c-0.2-0.3-0.5-0.5-1-0.7c-0.4-0.2-0.9-0.3-1.4-0.3c-0.6,0-1.1,0.1-1.6,0.3
	c-0.4,0.2-0.8,0.4-1.1,0.7c-0.3,0.3-0.5,0.6-0.6,1c-0.3,0.6-0.4,1.3-0.4,2c0,0.9,0.2,1.6,0.5,2.2c0.3,0.6,0.8,1,1.3,1.3
	c0.6,0.3,1.2,0.4,1.9,0.4c0.6,0,1.1-0.1,1.7-0.3c0.6-0.2,1-0.5,1.2-0.7v-1.9H74.3z M80.5,31.5v-7.3h1.1v1.1c0.3-0.5,0.5-0.9,0.8-1
	c0.2-0.2,0.5-0.3,0.8-0.2c0.4,0,0.8,0.1,1.3,0.4L84,25.7c-0.3-0.2-0.6-0.3-0.9-0.3c-0.3,0-0.5,0.1-0.7,0.2c-0.2,0.2-0.4,0.4-0.5,0.7
	c-0.1,0.4-0.2,0.9-0.2,1.4v3.8H80.5z M90.2,30.7c-0.4,0.4-0.9,0.7-1.3,0.8c-0.4,0.2-0.9,0.2-1.4,0.2c-0.8,0-1.4-0.2-1.8-0.6
	c-0.4-0.4-0.6-0.9-0.6-1.5c0-0.4,0.1-0.7,0.2-1c0.2-0.3,0.4-0.5,0.6-0.7c0.3-0.2,0.6-0.3,0.9-0.4c0.2-0.1,0.6-0.1,1.1-0.2
	c1-0.1,1.7-0.3,2.2-0.4c0-0.2,0-0.3,0-0.3c0-0.5-0.1-0.9-0.3-1.1c-0.3-0.3-0.8-0.4-1.4-0.4c-0.6,0-1,0.1-1.3,0.3
	c-0.3,0.2-0.5,0.6-0.6,1.1l-1.2-0.2c0.1-0.5,0.3-0.9,0.5-1.2c0.3-0.3,0.6-0.6,1.1-0.7c0.5-0.2,1-0.3,1.7-0.3c0.6,0,1.1,0.1,1.5,0.2
	c0.4,0.1,0.7,0.3,0.8,0.5c0.2,0.2,0.3,0.5,0.4,0.8c0,0.2,0.1,0.6,0.1,1.1v1.6c0,1.1,0,1.9,0.1,2.2c0.1,0.3,0.2,0.6,0.3,0.9h-1.3
	C90.3,31.3,90.2,31,90.2,30.7z M90.1,27.9c-0.4,0.2-1.1,0.3-2,0.5c-0.5,0.1-0.9,0.2-1.1,0.2c-0.2,0.1-0.4,0.2-0.5,0.4
	c-0.1,0.2-0.2,0.4-0.2,0.6c0,0.3,0.1,0.6,0.4,0.8c0.3,0.2,0.6,0.3,1.1,0.3c0.5,0,0.9-0.1,1.3-0.3c0.4-0.2,0.6-0.5,0.8-0.9
	c0.1-0.3,0.2-0.7,0.2-1.2V27.9z M96.2,30.5l0.2,1.1c-0.3,0.1-0.7,0.1-0.9,0.1c-0.4,0-0.8-0.1-1-0.2c-0.2-0.1-0.4-0.3-0.5-0.6
	c-0.1-0.2-0.1-0.7-0.1-1.5v-4.2h-0.9v-1h0.9v-1.8l1.2-0.7v2.5h1.2v1h-1.2v4.2c0,0.4,0,0.6,0.1,0.7c0,0.1,0.1,0.2,0.2,0.2
	c0.1,0.1,0.2,0.1,0.4,0.1C95.8,30.5,95.9,30.5,96.2,30.5z M97.5,22.9v-1.4h1.2v1.4H97.5z M97.5,31.5v-7.3h1.2v7.3H97.5z M100.8,31.5
	v-6.3h-1.1v-1h1.1v-0.8c0-0.5,0-0.9,0.1-1.1c0.1-0.3,0.3-0.6,0.6-0.8c0.3-0.2,0.7-0.3,1.3-0.3c0.3,0,0.7,0,1.1,0.1l-0.2,1.1
	c-0.2,0-0.5-0.1-0.7-0.1c-0.4,0-0.6,0.1-0.8,0.2c-0.2,0.2-0.2,0.5-0.2,0.9v0.7h1.4v1H102v6.3H100.8z M104.5,22.9v-1.4h1.2v1.4H104.5
	z M104.5,31.5v-7.3h1.2v7.3H104.5z M112.2,28.9l1.2,0.2c-0.1,0.8-0.5,1.5-1,2c-0.5,0.5-1.2,0.7-2,0.7c-1,0-1.8-0.3-2.4-1
	c-0.6-0.7-0.9-1.6-0.9-2.8c0-0.8,0.1-1.5,0.4-2c0.3-0.6,0.7-1,1.2-1.3c0.5-0.3,1.1-0.4,1.7-0.4c0.8,0,1.4,0.2,1.9,0.6
	c0.5,0.4,0.8,1,1,1.7l-1.2,0.2c-0.1-0.5-0.3-0.9-0.6-1.1c-0.3-0.3-0.6-0.4-1-0.4c-0.6,0-1.1,0.2-1.5,0.7c-0.4,0.4-0.6,1.1-0.6,2.1
	c0,1,0.2,1.7,0.6,2.1c0.4,0.4,0.9,0.7,1.5,0.7c0.5,0,0.9-0.1,1.2-0.4C111.9,30,112.1,29.5,112.2,28.9z M119.2,30.7
	c-0.4,0.4-0.9,0.7-1.3,0.8c-0.4,0.2-0.9,0.2-1.4,0.2c-0.8,0-1.4-0.2-1.8-0.6c-0.4-0.4-0.6-0.9-0.6-1.5c0-0.4,0.1-0.7,0.2-1
	c0.2-0.3,0.4-0.5,0.6-0.7c0.3-0.2,0.6-0.3,0.9-0.4c0.2-0.1,0.6-0.1,1.1-0.2c1-0.1,1.7-0.3,2.2-0.4c0-0.2,0-0.3,0-0.3
	c0-0.5-0.1-0.9-0.3-1.1c-0.3-0.3-0.8-0.4-1.4-0.4c-0.6,0-1,0.1-1.3,0.3c-0.3,0.2-0.5,0.6-0.6,1.1l-1.2-0.2c0.1-0.5,0.3-0.9,0.5-1.2
	c0.3-0.3,0.6-0.6,1.1-0.7c0.5-0.2,1-0.3,1.7-0.3c0.6,0,1.1,0.1,1.5,0.2c0.4,0.1,0.7,0.3,0.8,0.5c0.2,0.2,0.3,0.5,0.4,0.8
	c0,0.2,0.1,0.6,0.1,1.1v1.6c0,1.1,0,1.9,0.1,2.2c0.1,0.3,0.2,0.6,0.3,0.9h-1.3C119.3,31.3,119.2,31,119.2,30.7z M119.1,27.9
	c-0.4,0.2-1.1,0.3-2,0.5c-0.5,0.1-0.9,0.2-1.1,0.2c-0.2,0.1-0.4,0.2-0.5,0.4c-0.1,0.2-0.2,0.4-0.2,0.6c0,0.3,0.1,0.6,0.4,0.8
	c0.3,0.2,0.6,0.3,1.1,0.3c0.5,0,0.9-0.1,1.3-0.3c0.4-0.2,0.6-0.5,0.8-0.9c0.1-0.3,0.2-0.7,0.2-1.2V27.9z M125.2,30.5l0.2,1.1
	c-0.3,0.1-0.7,0.1-0.9,0.1c-0.4,0-0.8-0.1-1-0.2c-0.2-0.1-0.4-0.3-0.5-0.6c-0.1-0.2-0.1-0.7-0.1-1.5v-4.2h-0.9v-1h0.9v-1.8l1.2-0.7
	v2.5h1.2v1h-1.2v4.2c0,0.4,0,0.6,0.1,0.7c0,0.1,0.1,0.2,0.2,0.2c0.1,0.1,0.2,0.1,0.4,0.1C124.8,30.5,124.9,30.5,125.2,30.5z
	 M126.5,22.9v-1.4h1.2v1.4H126.5z M126.5,31.5v-7.3h1.2v7.3H126.5z M129,27.9c0-1.3,0.4-2.3,1.1-3c0.6-0.5,1.4-0.8,2.3-0.8
	c1,0,1.8,0.3,2.4,1c0.6,0.6,1,1.5,1,2.7c0,0.9-0.1,1.7-0.4,2.2c-0.3,0.5-0.7,0.9-1.2,1.2c-0.5,0.3-1.1,0.4-1.7,0.4
	c-1,0-1.8-0.3-2.5-1C129.3,30.1,129,29.1,129,27.9z M130.3,27.9c0,0.9,0.2,1.6,0.6,2.1c0.4,0.5,0.9,0.7,1.5,0.7
	c0.6,0,1.1-0.2,1.5-0.7c0.4-0.5,0.6-1.2,0.6-2.1c0-0.9-0.2-1.6-0.6-2c-0.4-0.5-0.9-0.7-1.5-0.7c-0.6,0-1.1,0.2-1.5,0.7
	C130.5,26.3,130.3,27,130.3,27.9z M137.5,31.5v-7.3h1.1v1c0.5-0.8,1.3-1.2,2.3-1.2c0.4,0,0.8,0.1,1.2,0.2c0.4,0.2,0.6,0.4,0.8,0.6
	c0.2,0.2,0.3,0.6,0.4,0.9c0.1,0.2,0.1,0.6,0.1,1.2v4.5h-1.2v-4.4c0-0.5,0-0.9-0.1-1.1c-0.1-0.3-0.3-0.4-0.5-0.6
	c-0.2-0.2-0.5-0.2-0.9-0.2c-0.5,0-1,0.2-1.4,0.5c-0.4,0.3-0.6,1-0.6,1.9v4H137.5z M156.8,28l1.3,0.3c-0.3,1.1-0.8,1.9-1.5,2.5
	c-0.7,0.6-1.6,0.9-2.6,0.9c-1.1,0-2-0.2-2.6-0.7c-0.7-0.4-1.2-1.1-1.5-1.9c-0.3-0.8-0.5-1.7-0.5-2.7c0-1,0.2-1.9,0.6-2.7
	c0.4-0.8,1-1.4,1.7-1.8c0.7-0.4,1.5-0.6,2.4-0.6c1,0,1.9,0.3,2.5,0.8c0.7,0.5,1.2,1.2,1.4,2.1l-1.3,0.3c-0.2-0.7-0.6-1.3-1-1.6
	c-0.4-0.3-1-0.5-1.7-0.5c-0.8,0-1.4,0.2-1.9,0.6c-0.5,0.4-0.9,0.9-1.1,1.5c-0.2,0.6-0.3,1.3-0.3,1.9c0,0.9,0.1,1.6,0.4,2.2
	c0.2,0.6,0.6,1.1,1.2,1.4c0.5,0.3,1.1,0.5,1.7,0.5c0.7,0,1.4-0.2,1.9-0.6C156.2,29.5,156.6,28.9,156.8,28z M159.5,31.5v-10h1.2v3.6
	c0.6-0.7,1.3-1,2.2-1c0.5,0,1,0.1,1.4,0.3c0.4,0.2,0.7,0.5,0.8,0.9c0.2,0.4,0.3,0.9,0.3,1.6v4.6h-1.2V27c0-0.6-0.1-1.1-0.4-1.3
	c-0.3-0.3-0.6-0.4-1.1-0.4c-0.4,0-0.7,0.1-1,0.3c-0.3,0.2-0.6,0.4-0.7,0.8c-0.1,0.3-0.2,0.8-0.2,1.3v4H159.5z M172.2,30.7
	c-0.4,0.4-0.9,0.7-1.3,0.8c-0.4,0.2-0.9,0.2-1.4,0.2c-0.8,0-1.4-0.2-1.8-0.6c-0.4-0.4-0.6-0.9-0.6-1.5c0-0.4,0.1-0.7,0.2-1
	c0.2-0.3,0.4-0.5,0.6-0.7c0.3-0.2,0.6-0.3,0.9-0.4c0.2-0.1,0.6-0.1,1.1-0.2c1-0.1,1.7-0.3,2.2-0.4c0-0.2,0-0.3,0-0.3
	c0-0.5-0.1-0.9-0.3-1.1c-0.3-0.3-0.8-0.4-1.4-0.4c-0.6,0-1,0.1-1.3,0.3c-0.3,0.2-0.5,0.6-0.6,1.1l-1.2-0.2c0.1-0.5,0.3-0.9,0.5-1.2
	c0.3-0.3,0.6-0.6,1.1-0.7c0.5-0.2,1-0.3,1.7-0.3c0.6,0,1.1,0.1,1.5,0.2c0.4,0.1,0.7,0.3,0.8,0.5c0.2,0.2,0.3,0.5,0.4,0.8
	c0,0.2,0.1,0.6,0.1,1.1v1.6c0,1.1,0,1.9,0.1,2.2c0.1,0.3,0.2,0.6,0.3,0.9h-1.3C172.3,31.3,172.2,31,172.2,30.7z M172.1,27.9
	c-0.4,0.2-1.1,0.3-2,0.5c-0.5,0.1-0.9,0.2-1.1,0.2c-0.2,0.1-0.4,0.2-0.5,0.4c-0.1,0.2-0.2,0.4-0.2,0.6c0,0.3,0.1,0.6,0.4,0.8
	c0.2,0.2,0.6,0.3,1.1,0.3c0.5,0,0.9-0.1,1.3-0.3c0.4-0.2,0.6-0.5,0.8-0.9c0.1-0.3,0.2-0.7,0.2-1.2V27.9z M175.5,31.5v-7.3h1.1v1.1
	c0.3-0.5,0.5-0.9,0.8-1c0.2-0.2,0.5-0.3,0.8-0.2c0.4,0,0.8,0.1,1.3,0.4l-0.4,1.1c-0.3-0.2-0.6-0.3-0.9-0.3c-0.3,0-0.5,0.1-0.7,0.2
	c-0.2,0.2-0.4,0.4-0.5,0.7c-0.1,0.4-0.2,0.9-0.2,1.4v3.8H175.5z M183.2,30.5l0.2,1.1c-0.3,0.1-0.7,0.1-0.9,0.1c-0.4,0-0.8-0.1-1-0.2
	c-0.2-0.1-0.4-0.3-0.5-0.6c-0.1-0.2-0.1-0.7-0.1-1.5v-4.2h-0.9v-1h0.9v-1.8l1.2-0.7v2.5h1.2v1h-1.2v4.2c0,0.4,0,0.6,0.1,0.7
	c0,0.1,0.1,0.2,0.2,0.2c0.1,0.1,0.2,0.1,0.4,0.1C182.8,30.5,182.9,30.5,183.2,30.5z M188.6,31.5v-10h3.8c0.8,0,1.4,0.1,1.8,0.3
	c0.5,0.2,0.8,0.5,1.1,0.9c0.3,0.4,0.4,0.9,0.4,1.3c0,0.4-0.1,0.8-0.4,1.2c-0.2,0.4-0.6,0.7-1,0.9c0.6,0.2,1.1,0.5,1.4,0.9
	c0.3,0.4,0.5,0.9,0.5,1.5c0,0.5-0.1,0.9-0.3,1.3c-0.2,0.4-0.4,0.7-0.7,0.9c-0.3,0.2-0.7,0.4-1.1,0.5c-0.4,0.1-1,0.2-1.6,0.2H188.6z
	 M189.9,25.7h2.2c0.6,0,1,0,1.3-0.1c0.3-0.1,0.6-0.3,0.8-0.5c0.2-0.2,0.2-0.5,0.2-0.9c0-0.3-0.1-0.6-0.2-0.9
	c-0.2-0.3-0.4-0.4-0.7-0.5c-0.3-0.1-0.8-0.1-1.5-0.1h-2V25.7z M189.9,30.4h2.5c0.4,0,0.7,0,0.9,0c0.3-0.1,0.6-0.1,0.8-0.3
	c0.2-0.1,0.4-0.3,0.5-0.6c0.1-0.2,0.2-0.5,0.2-0.8c0-0.4-0.1-0.7-0.3-1c-0.2-0.3-0.5-0.5-0.8-0.6c-0.3-0.1-0.8-0.2-1.5-0.2h-2.3
	V30.4z M202.2,30.7c-0.4,0.4-0.9,0.7-1.3,0.8c-0.4,0.2-0.9,0.2-1.4,0.2c-0.8,0-1.4-0.2-1.8-0.6c-0.4-0.4-0.6-0.9-0.6-1.5
	c0-0.4,0.1-0.7,0.2-1c0.2-0.3,0.4-0.5,0.6-0.7c0.3-0.2,0.6-0.3,0.9-0.4c0.2-0.1,0.6-0.1,1.1-0.2c1-0.1,1.7-0.3,2.2-0.4
	c0-0.2,0-0.3,0-0.3c0-0.5-0.1-0.9-0.3-1.1c-0.3-0.3-0.8-0.4-1.4-0.4c-0.6,0-1,0.1-1.3,0.3c-0.3,0.2-0.5,0.6-0.6,1.1l-1.2-0.2
	c0.1-0.5,0.3-0.9,0.5-1.2c0.3-0.3,0.6-0.6,1.1-0.7c0.5-0.2,1-0.3,1.7-0.3c0.6,0,1.1,0.1,1.5,0.2c0.4,0.1,0.7,0.3,0.8,0.5
	c0.2,0.2,0.3,0.5,0.4,0.8c0,0.2,0.1,0.6,0.1,1.1v1.6c0,1.1,0,1.9,0.1,2.2c0.1,0.3,0.2,0.6,0.3,0.9h-1.3
	C202.3,31.3,202.2,31,202.2,30.7z M202.1,27.9c-0.4,0.2-1.1,0.3-2,0.5c-0.5,0.1-0.9,0.2-1.1,0.2c-0.2,0.1-0.4,0.2-0.5,0.4
	c-0.1,0.2-0.2,0.4-0.2,0.6c0,0.3,0.1,0.6,0.4,0.8c0.2,0.2,0.6,0.3,1.1,0.3c0.5,0,0.9-0.1,1.3-0.3c0.4-0.2,0.6-0.5,0.8-0.9
	c0.1-0.3,0.2-0.7,0.2-1.2V27.9z M205,29.4l1.2-0.2c0.1,0.5,0.3,0.9,0.6,1.1c0.3,0.3,0.8,0.4,1.3,0.4c0.6,0,1-0.1,1.2-0.3
	c0.3-0.2,0.4-0.5,0.4-0.8c0-0.3-0.1-0.5-0.4-0.7c-0.2-0.1-0.6-0.3-1.2-0.4c-0.9-0.2-1.5-0.4-1.9-0.6c-0.3-0.2-0.6-0.4-0.8-0.7
	c-0.2-0.3-0.3-0.6-0.3-1c0-0.3,0.1-0.6,0.2-0.9c0.1-0.3,0.3-0.5,0.6-0.7c0.2-0.1,0.4-0.3,0.8-0.3c0.3-0.1,0.7-0.2,1.1-0.2
	c0.6,0,1.1,0.1,1.5,0.2c0.4,0.2,0.8,0.4,1,0.7c0.2,0.3,0.3,0.7,0.4,1.1l-1.2,0.2c-0.1-0.4-0.2-0.7-0.5-0.9c-0.3-0.2-0.6-0.3-1.1-0.3
	c-0.6,0-1,0.1-1.2,0.3c-0.2,0.2-0.4,0.4-0.4,0.7c0,0.2,0,0.3,0.1,0.4c0.1,0.1,0.3,0.2,0.5,0.3c0.1,0,0.5,0.1,1.1,0.3
	c0.9,0.2,1.5,0.4,1.8,0.6c0.3,0.1,0.6,0.4,0.8,0.6c0.2,0.3,0.3,0.6,0.3,1c0,0.4-0.1,0.8-0.4,1.2c-0.2,0.4-0.6,0.6-1,0.8
	c-0.4,0.2-1,0.3-1.5,0.3c-0.9,0-1.7-0.2-2.2-0.6C205.4,30.7,205.1,30.1,205,29.4z M217.4,29.2l1.3,0.2c-0.2,0.7-0.6,1.3-1.1,1.8
	c-0.5,0.4-1.2,0.6-2.1,0.6c-1.1,0-1.9-0.3-2.5-1c-0.6-0.7-0.9-1.6-0.9-2.8c0-1.2,0.3-2.2,0.9-2.8c0.6-0.7,1.5-1,2.5-1
	c1,0,1.8,0.3,2.4,1c0.6,0.7,0.9,1.6,0.9,2.8c0,0.1,0,0.2,0,0.3h-5.4c0.1,0.8,0.3,1.4,0.7,1.8c0.4,0.4,0.9,0.6,1.5,0.6
	c0.4,0,0.8-0.1,1.1-0.4C217,30.1,217.3,29.7,217.4,29.2z M213.4,27.2h4c-0.1-0.6-0.2-1.1-0.5-1.4c-0.4-0.5-0.9-0.7-1.5-0.7
	c-0.6,0-1.1,0.2-1.4,0.6C213.7,26.1,213.5,26.6,213.4,27.2z M225.2,31.5v-0.9c-0.5,0.7-1.1,1.1-2,1.1c-0.6,0-1.1-0.2-1.6-0.5
	c-0.5-0.3-0.9-0.8-1.1-1.3c-0.3-0.6-0.4-1.2-0.4-2c0-0.7,0.1-1.4,0.4-2c0.2-0.6,0.6-1,1.1-1.4c0.5-0.3,1-0.5,1.6-0.5
	c0.4,0,0.8,0.1,1.2,0.3c0.3,0.2,0.6,0.4,0.8,0.7v-3.6h1.2v10H225.2z M221.3,27.9c0,0.9,0.2,1.6,0.6,2.1c0.4,0.5,0.9,0.7,1.4,0.7
	c0.5,0,1-0.2,1.4-0.7c0.4-0.4,0.6-1.1,0.6-2c0-1-0.2-1.7-0.6-2.2c-0.4-0.5-0.9-0.7-1.4-0.7c-0.6,0-1,0.2-1.4,0.7
	C221.5,26.3,221.3,27,221.3,27.9z M232,27.9c0-1.3,0.4-2.3,1.1-3c0.6-0.5,1.4-0.8,2.3-0.8c1,0,1.8,0.3,2.4,1c0.6,0.6,1,1.5,1,2.7
	c0,0.9-0.1,1.7-0.4,2.2c-0.3,0.5-0.7,0.9-1.2,1.2c-0.5,0.3-1.1,0.4-1.7,0.4c-1,0-1.8-0.3-2.5-1C232.3,30.1,232,29.1,232,27.9z
	 M233.3,27.9c0,0.9,0.2,1.6,0.6,2.1c0.4,0.5,0.9,0.7,1.5,0.7c0.6,0,1.1-0.2,1.5-0.7c0.4-0.5,0.6-1.2,0.6-2.1c0-0.9-0.2-1.6-0.6-2
	c-0.4-0.5-0.9-0.7-1.5-0.7c-0.6,0-1.1,0.2-1.5,0.7C233.5,26.3,233.3,27,233.3,27.9z M240.5,31.5v-7.3h1.1v1c0.5-0.8,1.3-1.2,2.3-1.2
	c0.4,0,0.8,0.1,1.2,0.2c0.4,0.2,0.6,0.4,0.8,0.6c0.2,0.2,0.3,0.6,0.4,0.9c0.1,0.2,0.1,0.6,0.1,1.2v4.5h-1.2v-4.4
	c0-0.5,0-0.9-0.1-1.1c-0.1-0.3-0.3-0.4-0.5-0.6c-0.2-0.2-0.5-0.2-0.9-0.2c-0.5,0-1,0.2-1.4,0.5c-0.4,0.3-0.6,1-0.6,1.9v4H240.5z
	 M255.2,31.5v-8.8h-3.3v-1.2h7.9v1.2h-3.3v8.8H255.2z M266.2,30.7c-0.4,0.4-0.9,0.7-1.3,0.8c-0.4,0.2-0.9,0.2-1.4,0.2
	c-0.8,0-1.4-0.2-1.8-0.6c-0.4-0.4-0.6-0.9-0.6-1.5c0-0.4,0.1-0.7,0.2-1c0.2-0.3,0.4-0.5,0.6-0.7c0.3-0.2,0.6-0.3,0.9-0.4
	c0.2-0.1,0.6-0.1,1.1-0.2c1-0.1,1.7-0.3,2.2-0.4c0-0.2,0-0.3,0-0.3c0-0.5-0.1-0.9-0.3-1.1c-0.3-0.3-0.8-0.4-1.4-0.4
	c-0.6,0-1,0.1-1.3,0.3c-0.3,0.2-0.5,0.6-0.6,1.1l-1.2-0.2c0.1-0.5,0.3-0.9,0.5-1.2c0.3-0.3,0.6-0.6,1.1-0.7c0.5-0.2,1-0.3,1.7-0.3
	c0.6,0,1.1,0.1,1.5,0.2c0.4,0.1,0.7,0.3,0.8,0.5c0.2,0.2,0.3,0.5,0.4,0.8c0,0.2,0.1,0.6,0.1,1.1v1.6c0,1.1,0,1.9,0.1,2.2
	c0.1,0.3,0.2,0.6,0.3,0.9h-1.3C266.3,31.3,266.2,31,266.2,30.7z M266.1,27.9c-0.4,0.2-1.1,0.3-2,0.5c-0.5,0.1-0.9,0.2-1.1,0.2
	c-0.2,0.1-0.4,0.2-0.5,0.4c-0.1,0.2-0.2,0.4-0.2,0.6c0,0.3,0.1,0.6,0.4,0.8c0.2,0.2,0.6,0.3,1.1,0.3c0.5,0,0.9-0.1,1.3-0.3
	c0.4-0.2,0.6-0.5,0.8-0.9c0.1-0.3,0.2-0.7,0.2-1.2V27.9z M269,29.4l1.2-0.2c0.1,0.5,0.3,0.9,0.6,1.1c0.3,0.3,0.8,0.4,1.3,0.4
	c0.6,0,1-0.1,1.2-0.3c0.3-0.2,0.4-0.5,0.4-0.8c0-0.3-0.1-0.5-0.4-0.7c-0.2-0.1-0.6-0.3-1.2-0.4c-0.9-0.2-1.5-0.4-1.9-0.6
	c-0.3-0.2-0.6-0.4-0.8-0.7c-0.2-0.3-0.3-0.6-0.3-1c0-0.3,0.1-0.6,0.2-0.9c0.1-0.3,0.3-0.5,0.6-0.7c0.2-0.1,0.4-0.3,0.8-0.3
	c0.3-0.1,0.7-0.2,1.1-0.2c0.6,0,1.1,0.1,1.5,0.2c0.4,0.2,0.8,0.4,1,0.7c0.2,0.3,0.3,0.7,0.4,1.1l-1.2,0.2c-0.1-0.4-0.2-0.7-0.5-0.9
	c-0.3-0.2-0.6-0.3-1.1-0.3c-0.6,0-1,0.1-1.2,0.3c-0.2,0.2-0.4,0.4-0.4,0.7c0,0.2,0,0.3,0.1,0.4c0.1,0.1,0.3,0.2,0.5,0.3
	c0.1,0,0.5,0.1,1.1,0.3c0.9,0.2,1.5,0.4,1.8,0.6c0.3,0.1,0.6,0.4,0.8,0.6c0.2,0.3,0.3,0.6,0.3,1c0,0.4-0.1,0.8-0.4,1.2
	c-0.2,0.4-0.6,0.6-1,0.8c-0.4,0.2-1,0.3-1.5,0.3c-0.9,0-1.7-0.2-2.2-0.6C269.4,30.7,269.1,30.1,269,29.4z M276.5,31.5v-10h1.2v5.7
	l2.9-3h1.6l-2.8,2.7l3.1,4.6H281l-2.4-3.7l-0.9,0.8v2.9H276.5z M287.6,31.5v-10h3.8c0.8,0,1.4,0.1,1.8,0.3c0.5,0.2,0.8,0.5,1.1,0.9
	c0.3,0.4,0.4,0.9,0.4,1.3c0,0.4-0.1,0.8-0.4,1.2c-0.2,0.4-0.6,0.7-1,0.9c0.6,0.2,1.1,0.5,1.4,0.9c0.3,0.4,0.5,0.9,0.5,1.5
	c0,0.5-0.1,0.9-0.3,1.3c-0.2,0.4-0.4,0.7-0.7,0.9c-0.3,0.2-0.7,0.4-1.1,0.5c-0.4,0.1-1,0.2-1.6,0.2H287.6z M288.9,25.7h2.2
	c0.6,0,1,0,1.3-0.1c0.3-0.1,0.6-0.3,0.8-0.5c0.2-0.2,0.2-0.5,0.2-0.9c0-0.3-0.1-0.6-0.2-0.9c-0.2-0.3-0.4-0.4-0.7-0.5
	c-0.3-0.1-0.8-0.1-1.5-0.1h-2V25.7z M288.9,30.4h2.5c0.4,0,0.7,0,0.9,0c0.3-0.1,0.6-0.1,0.8-0.3c0.2-0.1,0.4-0.3,0.5-0.6
	c0.1-0.2,0.2-0.5,0.2-0.8c0-0.4-0.1-0.7-0.3-1c-0.2-0.3-0.5-0.5-0.8-0.6c-0.3-0.1-0.8-0.2-1.5-0.2h-2.3V30.4z M301.4,29.2l1.3,0.2
	c-0.2,0.7-0.6,1.3-1.1,1.8c-0.5,0.4-1.2,0.6-2.1,0.6c-1.1,0-1.9-0.3-2.5-1c-0.6-0.7-0.9-1.6-0.9-2.8c0-1.2,0.3-2.2,0.9-2.8
	c0.6-0.7,1.5-1,2.5-1c1,0,1.8,0.3,2.4,1c0.6,0.7,0.9,1.6,0.9,2.8c0,0.1,0,0.2,0,0.3h-5.4c0.1,0.8,0.3,1.4,0.7,1.8
	c0.4,0.4,0.9,0.6,1.5,0.6c0.4,0,0.8-0.1,1.1-0.4C301,30.1,301.3,29.7,301.4,29.2z M297.4,27.2h4c-0.1-0.6-0.2-1.1-0.5-1.4
	c-0.4-0.5-0.9-0.7-1.5-0.7c-0.6,0-1.1,0.2-1.4,0.6C297.7,26.1,297.5,26.6,297.4,27.2z M304.5,22.9v-1.4h1.2v1.4H304.5z M304.5,31.5
	v-7.3h1.2v7.3H304.5z M307.5,31.5v-7.3h1.1v1c0.5-0.8,1.3-1.2,2.3-1.2c0.4,0,0.8,0.1,1.2,0.2c0.4,0.2,0.6,0.4,0.8,0.6
	c0.2,0.2,0.3,0.6,0.4,0.9c0.1,0.2,0.1,0.6,0.1,1.2v4.5h-1.2v-4.4c0-0.5,0-0.9-0.1-1.1c-0.1-0.3-0.3-0.4-0.5-0.6
	c-0.2-0.2-0.5-0.2-0.9-0.2c-0.5,0-1,0.2-1.4,0.5c-0.4,0.3-0.6,1-0.6,1.9v4H307.5z M315.3,32.2l1.2,0.2c0.1,0.4,0.2,0.6,0.4,0.8
	c0.3,0.2,0.7,0.3,1.2,0.3c0.6,0,1-0.1,1.3-0.3c0.3-0.2,0.5-0.5,0.6-1c0.1-0.3,0.1-0.8,0.1-1.6c-0.5,0.6-1.2,1-2,1
	c-1,0-1.8-0.4-2.3-1.1c-0.5-0.7-0.8-1.6-0.8-2.6c0-0.7,0.1-1.3,0.4-1.9c0.2-0.6,0.6-1,1.1-1.4c0.5-0.3,1-0.5,1.7-0.5
	c0.9,0,1.6,0.3,2.1,1v-0.9h1.1v6.3c0,1.1-0.1,1.9-0.3,2.4s-0.6,0.8-1.1,1.1c-0.5,0.3-1.1,0.4-1.8,0.4c-0.9,0-1.6-0.2-2.1-0.6
	C315.5,33.5,315.2,32.9,315.3,32.2z M316.3,27.8c0,1,0.2,1.7,0.6,2.1c0.4,0.4,0.8,0.7,1.4,0.7c0.6,0,1-0.2,1.4-0.7
	c0.4-0.4,0.6-1.1,0.6-2c0-0.9-0.2-1.6-0.6-2c-0.4-0.5-0.9-0.7-1.4-0.7c-0.6,0-1,0.2-1.4,0.7C316.5,26.3,316.3,26.9,316.3,27.8z
	 M327.6,31.5v-10h3.8c0.7,0,1.2,0,1.5,0.1c0.5,0.1,0.9,0.2,1.2,0.5c0.3,0.2,0.6,0.6,0.8,1c0.2,0.4,0.3,0.9,0.3,1.4
	c0,0.9-0.3,1.6-0.8,2.2c-0.5,0.6-1.5,0.9-2.9,0.9H329v4.1H327.6z M329,26.3h2.6c0.9,0,1.5-0.2,1.8-0.5c0.4-0.3,0.5-0.8,0.5-1.3
	c0-0.4-0.1-0.8-0.3-1.1c-0.2-0.3-0.5-0.5-0.8-0.6c-0.2-0.1-0.6-0.1-1.2-0.1H329V26.3z M341.4,29.2l1.3,0.2c-0.2,0.7-0.6,1.3-1.1,1.8
	c-0.5,0.4-1.2,0.6-2.1,0.6c-1.1,0-1.9-0.3-2.5-1c-0.6-0.7-0.9-1.6-0.9-2.8c0-1.2,0.3-2.2,0.9-2.8c0.6-0.7,1.5-1,2.5-1
	c1,0,1.8,0.3,2.4,1c0.6,0.7,0.9,1.6,0.9,2.8c0,0.1,0,0.2,0,0.3h-5.4c0.1,0.8,0.3,1.4,0.7,1.8c0.4,0.4,0.9,0.6,1.5,0.6
	c0.4,0,0.8-0.1,1.1-0.4C341,30.1,341.3,29.7,341.4,29.2z M337.4,27.2h4c-0.1-0.6-0.2-1.1-0.5-1.4c-0.4-0.5-0.9-0.7-1.5-0.7
	c-0.6,0-1.1,0.2-1.4,0.6C337.7,26.1,337.5,26.6,337.4,27.2z M344.5,31.5v-7.3h1.1v1.1c0.3-0.5,0.5-0.9,0.8-1
	c0.2-0.2,0.5-0.3,0.8-0.2c0.4,0,0.8,0.1,1.3,0.4l-0.4,1.1c-0.3-0.2-0.6-0.3-0.9-0.3c-0.3,0-0.5,0.1-0.7,0.2
	c-0.2,0.2-0.4,0.4-0.5,0.7c-0.1,0.4-0.2,0.9-0.2,1.4v3.8H344.5z M349.8,31.5v-6.3h-1.1v-1h1.1v-0.8c0-0.5,0-0.9,0.1-1.1
	c0.1-0.3,0.3-0.6,0.6-0.8c0.3-0.2,0.7-0.3,1.3-0.3c0.3,0,0.7,0,1.1,0.1l-0.2,1.1c-0.3,0-0.5-0.1-0.7-0.1c-0.4,0-0.6,0.1-0.8,0.2
	c-0.2,0.2-0.2,0.5-0.2,0.9v0.7h1.4v1H351v6.3H349.8z M353,27.9c0-1.3,0.4-2.3,1.1-3c0.6-0.5,1.4-0.8,2.3-0.8c1,0,1.8,0.3,2.4,1
	c0.6,0.6,1,1.5,1,2.7c0,0.9-0.1,1.7-0.4,2.2c-0.3,0.5-0.7,0.9-1.2,1.2c-0.5,0.3-1.1,0.4-1.7,0.4c-1,0-1.8-0.3-2.5-1
	C353.3,30.1,353,29.1,353,27.9z M354.3,27.9c0,0.9,0.2,1.6,0.6,2.1c0.4,0.5,0.9,0.7,1.5,0.7c0.6,0,1.1-0.2,1.5-0.7
	c0.4-0.5,0.6-1.2,0.6-2.1c0-0.9-0.2-1.6-0.6-2c-0.4-0.5-0.9-0.7-1.5-0.7c-0.6,0-1.1,0.2-1.5,0.7C354.5,26.3,354.3,27,354.3,27.9z
	 M361.5,31.5v-7.3h1.1v1.1c0.3-0.5,0.5-0.9,0.8-1c0.2-0.2,0.5-0.3,0.8-0.2c0.4,0,0.8,0.1,1.3,0.4l-0.4,1.1c-0.3-0.2-0.6-0.3-0.9-0.3
	c-0.3,0-0.5,0.1-0.7,0.2c-0.2,0.2-0.4,0.4-0.5,0.7c-0.1,0.4-0.2,0.9-0.2,1.4v3.8H361.5z M366.5,31.5v-7.3h1.1v1
	c0.2-0.4,0.5-0.7,0.9-0.9c0.4-0.2,0.8-0.3,1.3-0.3c0.5,0,1,0.1,1.3,0.3c0.3,0.2,0.6,0.5,0.7,0.9c0.6-0.8,1.3-1.3,2.2-1.3
	c0.7,0,1.3,0.2,1.7,0.6c0.4,0.4,0.6,1,0.6,1.8v5h-1.2V27c0-0.5,0-0.8-0.1-1.1c-0.1-0.2-0.2-0.4-0.4-0.5c-0.2-0.1-0.5-0.2-0.7-0.2
	c-0.5,0-0.9,0.2-1.3,0.5c-0.3,0.3-0.5,0.9-0.5,1.6v4.2h-1.2v-4.7c0-0.5-0.1-0.9-0.3-1.2c-0.2-0.3-0.5-0.4-1-0.4
	c-0.3,0-0.7,0.1-1,0.3c-0.3,0.2-0.5,0.4-0.6,0.8c-0.1,0.3-0.2,0.8-0.2,1.5v3.8H366.5z M382.4,29.2l1.3,0.2c-0.2,0.7-0.6,1.3-1.1,1.8
	c-0.5,0.4-1.2,0.6-2.1,0.6c-1.1,0-1.9-0.3-2.5-1c-0.6-0.7-0.9-1.6-0.9-2.8c0-1.2,0.3-2.2,0.9-2.8c0.6-0.7,1.5-1,2.5-1
	c1,0,1.8,0.3,2.4,1c0.6,0.7,0.9,1.6,0.9,2.8c0,0.1,0,0.2,0,0.3h-5.4c0.1,0.8,0.3,1.4,0.7,1.8c0.4,0.4,0.9,0.6,1.5,0.6
	c0.4,0,0.8-0.1,1.1-0.4C382,30.1,382.3,29.7,382.4,29.2z M378.4,27.2h4c-0.1-0.6-0.2-1.1-0.5-1.4c-0.4-0.5-0.9-0.7-1.5-0.7
	c-0.6,0-1.1,0.2-1.4,0.6C378.7,26.1,378.5,26.6,378.4,27.2z M390.2,31.5v-0.9c-0.5,0.7-1.1,1.1-2,1.1c-0.6,0-1.1-0.2-1.6-0.5
	c-0.5-0.3-0.9-0.8-1.1-1.3c-0.3-0.6-0.4-1.2-0.4-2c0-0.7,0.1-1.4,0.4-2c0.2-0.6,0.6-1,1.1-1.4c0.5-0.3,1-0.5,1.6-0.5
	c0.4,0,0.8,0.1,1.2,0.3c0.3,0.2,0.6,0.4,0.8,0.7v-3.6h1.2v10H390.2z M386.3,27.9c0,0.9,0.2,1.6,0.6,2.1c0.4,0.5,0.9,0.7,1.4,0.7
	c0.5,0,1-0.2,1.4-0.7c0.4-0.4,0.6-1.1,0.6-2c0-1-0.2-1.7-0.6-2.2c-0.4-0.5-0.9-0.7-1.4-0.7c-0.6,0-1,0.2-1.4,0.7
	C386.5,26.3,386.3,27,386.3,27.9z"/>
<circle class="st9" cx="421.3" cy="316" r="12.9"/>
</svg>
