<?xml version="1.0" standalone="no"?>
<!DOCTYPE svg PUBLIC "-//W3C//DTD SVG 20010904//EN"
 "http://www.w3.org/TR/2001/REC-SVG-20010904/DTD/svg10.dtd">
<svg version="1.0" xmlns="http://www.w3.org/2000/svg"
 width="951.000000pt" height="1752.000000pt" viewBox="0 0 951.000000 1752.000000"
 preserveAspectRatio="xMidYMid meet">

<g transform="translate(0.000000,1752.000000) scale(0.100000,-0.100000)"
fill="#000000" stroke="none">
<path d="M4571 16839 c-9 -4 -66 -7 -127 -6 -60 0 -125 -5 -145 -12 -20 -6
-72 -12 -116 -14 -45 -1 -79 -6 -76 -11 3 -4 -8 -5 -26 -1 -17 3 -57 1 -88 -6
-32 -7 -61 -12 -65 -11 -18 4 -324 -62 -438 -94 -258 -73 -375 -144 -516 -309
-225 -263 -533 -840 -814 -1525 -346 -845 -515 -1390 -679 -2190 -73 -361 -91
-503 -101 -812 -11 -349 -11 -345 -68 -383 -76 -51 -118 -122 -152 -259 -17
-65 -30 -130 -29 -145 0 -14 9 12 19 59 38 179 83 271 157 323 22 15 42 27 45
27 3 0 8 -44 10 -97 5 -101 63 -675 98 -958 11 -88 42 -342 69 -565 76 -616
79 -641 100 -845 24 -230 57 -575 70 -745 6 -69 20 -228 31 -355 25 -287 84
-1053 105 -1365 53 -797 62 -929 116 -1645 63 -847 114 -1379 194 -2034 63
-513 110 -760 186 -993 54 -168 157 -360 220 -413 22 -18 22 -17 -2 10 -103
118 -192 325 -254 590 -48 203 -126 737 -111 753 3 3 59 -20 123 -51 384 -183
834 -315 1323 -387 387 -56 670 -74 1215 -74 661 0 1071 32 1495 119 330 67
743 203 1000 329 50 24 92 41 94 37 13 -21 -85 -636 -129 -812 -66 -260 -125
-377 -274 -544 l-45 -50 58 55 c188 179 279 424 370 1000 100 631 159 1285
276 3080 43 665 60 920 70 1050 6 74 15 194 20 265 11 150 55 693 70 870 6 66
22 282 35 480 35 500 77 909 170 1655 48 382 114 973 140 1240 21 218 23 230
40 230 8 0 15 5 15 10 0 6 -4 10 -10 10 -9 0 -2 189 7 200 9 9 104 -104 128
-150 12 -25 30 -82 40 -128 10 -45 20 -80 22 -78 10 10 -29 164 -54 215 -14
30 -52 80 -84 112 l-58 58 -10 131 c-8 95 -8 145 1 183 21 101 -4 501 -52 792
-105 648 -344 1559 -562 2145 -264 710 -545 1262 -799 1574 -122 149 -269 235
-534 312 -212 62 -597 131 -652 118 -19 -5 -24 -4 -18 5 5 10 -6 11 -51 6 -45
-5 -56 -4 -44 5 12 9 0 10 -48 5 -42 -4 -62 -3 -58 4 4 6 -20 10 -66 10 -40 0
-227 1 -416 3 -189 2 -351 0 -361 -3z m872 -34 c367 -33 657 -87 922 -172 263
-84 381 -180 573 -463 268 -397 586 -1107 797 -1780 195 -620 372 -1367 440
-1850 41 -293 59 -670 32 -670 -7 0 -51 39 -97 86 -294 296 -740 508 -1439
683 -679 170 -1112 225 -1776 225 -413 0 -541 -8 -940 -60 -519 -67 -1206
-254 -1670 -453 -321 -138 -629 -325 -802 -485 -86 -79 -97 -74 -88 42 28 381
110 837 251 1382 183 708 549 1674 873 2305 305 594 496 850 717 967 233 122
752 223 1324 258 198 12 678 4 883 -15z m-1110 -4162 c-7 -2 -19 -2 -25 0 -7
3 -2 5 12 5 14 0 19 -2 13 -5z m1950 -40 c-7 -2 -19 -2 -25 0 -7 3 -2 5 12 5
14 0 19 -2 13 -5z m-1756 -29 c-3 -3 -12 -4 -19 -1 -8 3 -5 6 6 6 11 1 17 -2
13 -5z m1910 -10 c-3 -3 -12 -4 -19 -1 -8 3 -5 6 6 6 11 1 17 -2 13 -5z m656
-291 c9 -3 17 -9 17 -14 0 -12 -6 -11 -40 6 -32 17 -41 32 -12 20 9 -4 25 -10
35 -12z m-24 -32 c10 -6 10 -10 1 -16 -7 -4 -19 0 -28 9 -14 13 -14 16 -2 16
8 0 21 -4 29 -9z m111 -6 c17 -9 30 -18 30 -21 0 -2 -10 1 -22 7 -12 6 -33 15
-47 20 -17 5 -20 8 -8 8 10 1 31 -6 47 -14z m-5540 -419 c0 -3 -12 -11 -27
-18 -16 -8 -50 -27 -78 -42 -33 -19 -42 -21 -25 -8 21 18 117 72 127 72 2 0 3
-2 3 -4z m3696 -416 c768 -43 1495 -147 2362 -337 l262 -57 -1 -36 c0 -29 -2
-31 -9 -14 -7 17 -30 25 -135 48 -70 15 -129 25 -132 23 -2 -3 6 -8 18 -12 38
-12 49 -28 30 -42 -14 -12 -14 -12 3 -6 14 4 17 3 12 -6 -4 -6 -3 -17 2 -24
12 -15 7 -50 -9 -56 -8 -2 -7 -6 2 -12 10 -6 11 -9 2 -9 -7 0 -13 -5 -13 -11
0 -5 4 -8 9 -5 4 3 6 -6 3 -21 -4 -19 -2 -24 8 -18 9 6 11 4 6 -4 -5 -7 -15
-10 -23 -6 -13 4 -14 3 -4 -9 7 -8 10 -21 6 -28 -4 -7 0 -5 9 6 14 18 15 18
13 -3 -1 -11 -8 -21 -17 -21 -13 0 -13 -1 0 -10 16 -10 20 -51 6 -61 -5 -4 0
-10 12 -13 14 -5 18 -13 15 -27 -6 -23 24 -62 41 -52 6 3 6 0 -1 -7 -16 -17 1
-40 28 -40 10 0 21 -5 24 -10 15 -24 36 25 50 112 11 75 13 80 9 28 -3 -36 -7
-86 -11 -112 l-6 -48 -41 -1 c-22 0 -201 -5 -396 -10 -565 -15 -1931 -20
-1893 -7 43 14 67 85 50 151 -11 45 -54 117 -69 117 -5 0 -6 6 -2 13 4 6 4 9
-1 5 -4 -4 -22 3 -39 16 -37 27 -82 46 -122 50 -16 2 -29 5 -29 6 0 8 -461 4
-467 -5 -5 -6 -8 -5 -8 3 0 6 -5 12 -11 12 -5 0 -8 -4 -5 -8 2 -4 -4 -8 -15
-8 -10 0 -19 4 -19 8 0 5 -10 4 -21 -3 -13 -6 -19 -7 -15 -1 7 11 -99 6 -117
-5 -6 -3 -7 -1 -3 5 4 7 3 12 -3 12 -5 0 -13 -5 -16 -10 -4 -6 -12 -7 -18 -3
-6 4 -30 6 -52 4 -22 -1 -48 -2 -57 -2 -10 0 -33 1 -50 1 -18 0 -46 1 -63 1
-30 2 -170 -1 -257 -4 -27 -1 -48 -5 -48 -8 0 -3 -7 -6 -15 -6 -8 0 -15 5 -15
11 0 6 -4 5 -9 -3 -5 -8 -18 -12 -30 -8 -12 3 -19 1 -15 -4 3 -5 -6 -9 -20 -9
-14 0 -28 -5 -31 -10 -4 -6 -11 -8 -16 -5 -5 4 -9 1 -9 -6 0 -7 -3 -9 -6 -6
-13 13 -62 -34 -86 -80 -26 -49 -35 -118 -18 -128 6 -3 10 -15 10 -25 0 -10 4
-20 9 -22 5 -1 11 -10 13 -18 2 -8 7 -18 13 -22 5 -4 7 -10 4 -13 -8 -8 -1943
-7 -1963 1 -9 4 -15 11 -14 16 2 5 7 8 11 6 12 -4 29 30 22 42 -3 6 -2 10 3
10 13 0 44 78 37 90 -3 5 -1 19 6 31 9 17 8 24 -2 31 -10 6 -6 7 11 3 14 -3
21 -3 15 2 -19 15 -41 47 -27 39 10 -6 13 -3 10 11 -2 11 3 27 10 35 11 13 10
16 -5 14 -11 0 -17 5 -14 14 2 8 6 26 8 40 4 20 2 22 -6 10 -7 -9 -11 -10 -11
-3 0 6 5 15 10 18 7 4 7 12 0 25 -5 10 -7 26 -4 34 4 11 1 15 -7 13 -8 -2 -10
-2 -6 1 4 2 2 11 -5 20 -11 13 -10 14 8 4 26 -14 42 1 39 35 -2 25 -3 25 112
49 46 10 81 19 79 22 -3 2 -121 -19 -263 -46 -328 -64 -313 -62 -313 -47 0 15
-9 13 287 74 907 188 1635 290 2363 330 215 12 842 12 1046 1z m2611 -527 c-3
-10 -5 -4 -5 12 0 17 2 24 5 18 2 -7 2 -21 0 -30z m-10 -110 c-2 -16 -4 -5 -4
22 0 28 2 40 4 28 2 -13 2 -35 0 -50z m-3991 -442 c-9 -11 -7 -13 9 -8 28 9
325 25 595 32 208 6 754 -7 913 -21 57 -5 67 -9 67 -25 0 -10 -3 -19 -7 -20
-5 0 -339 -2 -743 -3 -404 -2 -753 -6 -775 -10 -60 -10 -69 1 -75 91 l-5 78
-200 -4 c-280 -5 -2027 10 -2020 18 4 3 502 6 1108 6 l1102 0 -3 37 c-2 21 0
43 4 50 5 8 15 -33 25 -97 12 -81 13 -114 5 -124z m3954 151 c0 -5 -116 -12
-257 -15 -390 -10 -2119 -21 -2112 -13 4 4 316 9 695 13 379 3 840 9 1024 13
504 10 650 11 650 2z m-3 -69 c-3 -10 -5 -4 -5 12 0 17 2 24 5 18 2 -7 2 -21
0 -30z m-2370 -65 c-3 -7 -5 -2 -5 12 0 14 2 19 5 13 2 -7 2 -19 0 -25z
m-2787 -43 c-14 -8 -29 -14 -35 -14 -5 0 1 6 15 14 14 8 30 14 35 14 6 0 -1
-6 -15 -14z m2573 -262 c160 -6 179 -12 141 -44 -22 -18 -1398 -16 -1420 2
-31 26 -15 38 54 42 128 6 1068 7 1225 0z m-2185 -250 c-10 -2 -26 -2 -35 0
-10 3 -2 5 17 5 19 0 27 -2 18 -5z m49 1 c-3 -3 -12 -4 -19 -1 -8 3 -5 6 6 6
11 1 17 -2 13 -5z m61 -1 c-10 -2 -26 -2 -35 0 -10 3 -2 5 17 5 19 0 27 -2 18
-5z m-320 -10 c-10 -2 -26 -2 -35 0 -10 3 -2 5 17 5 19 0 27 -2 18 -5z m422
-23 c83 -9 271 -57 229 -59 -9 -1 -38 6 -65 14 -161 49 -684 38 -787 -17 -10
-5 -46 -14 -79 -19 -34 -6 -73 -16 -87 -23 -14 -8 -46 -18 -71 -24 -25 -6 -54
-14 -65 -17 -14 -5 -13 -2 5 9 14 8 63 27 110 41 47 15 124 40 171 56 130 44
418 61 639 39z m293 -67 c-7 -2 -21 -2 -30 0 -10 3 -4 5 12 5 17 0 24 -2 18
-5z m54 -9 c-3 -3 -12 -4 -19 -1 -8 3 -5 6 6 6 11 1 17 -2 13 -5z m208 -92
c-17 -15 -157 -60 -220 -71 -250 -45 -697 -61 -1208 -43 -177 6 -207 5 -207
-8 0 -10 -3 -11 -11 -3 -13 13 -2 78 15 92 7 6 26 6 51 1 83 -20 464 -32 800
-27 327 6 515 20 695 51 99 18 96 17 85 8z m-1409 -164 c13 -14 -31 -23 -113
-23 -69 0 -86 3 -102 20 l-21 20 114 -5 c63 -3 118 -8 122 -12z m2721 -90 c-3
-7 -5 -2 -5 12 0 14 2 19 5 13 2 -7 2 -19 0 -25z m-11 -195 c0 -187 11 -256
42 -268 9 -4 73 -9 142 -11 69 -3 151 -6 183 -7 l57 -3 0 70 c0 50 3 66 10 56
5 -8 10 -29 10 -46 0 -24 5 -33 21 -37 13 -4 20 -11 16 -20 -4 -11 35 -16 226
-26 128 -7 252 -14 277 -16 112 -11 297 -25 315 -25 27 1 197 -25 440 -66 226
-39 213 -36 240 -52 30 -17 6 -16 -157 13 -417 72 -1068 129 -1625 142 l-263
6 0 41 c0 23 9 95 19 161 19 115 44 265 46 265 0 0 1 -80 1 -177z m-819 5 c-3
-8 -6 -5 -6 6 -1 11 2 17 5 13 3 -3 4 -12 1 -19z m1260 -80 c-2 -18 -4 -6 -4
27 0 33 2 48 4 33 2 -15 2 -42 0 -60z m1517 -116 c3 -37 5 -96 5 -132 -1 -47
-4 -32 -10 55 -5 66 -13 128 -19 137 -7 13 -6 16 4 12 8 -3 16 -30 20 -72z
m-2753 -22 l2 -75 -229 -11 c-126 -7 -254 -12 -284 -12 -54 1 -54 1 15 8 39 4
151 11 250 14 254 10 235 3 235 88 0 93 8 84 11 -12z m-633 -107 c-10 -2 -28
-2 -40 0 -13 2 -5 4 17 4 22 1 32 -1 23 -4z m2829 -9 c-3 -3 -12 -4 -19 -1 -8
3 -5 6 6 6 11 1 17 -2 13 -5z m680 -150 c-3 -3 -12 -4 -19 -1 -8 3 -5 6 6 6
11 1 17 -2 13 -5z m106 -15 c71 -12 115 -30 67 -28 -30 1 -171 36 -152 38 7 0
46 -4 85 -10z m-4039 -420 c-3 -5 -9 -7 -13 -5 -4 3 -23 -11 -42 -30 -18 -19
-50 -44 -69 -55 -25 -15 -31 -16 -19 -4 63 64 168 133 143 94z m154 -4646
c-21 -2 -57 -2 -80 0 -24 2 -7 4 37 4 44 0 63 -2 43 -4z m-655 -50 c-7 -2 -19
-2 -25 0 -7 3 -2 5 12 5 14 0 19 -2 13 -5z m-75 -10 c-10 -2 -28 -2 -40 0 -13
2 -5 4 17 4 22 1 32 -1 23 -4z m-138 -13 c-41 -4 -174 -7 -295 -7 l-220 1 195
6 c107 3 240 6 295 6 l100 1 -75 -7z m-477 -310 c3 -34 2 -47 -3 -35 -8 19
-14 103 -6 94 2 -2 6 -29 9 -59z m101 -76 c21 -14 60 -9 85 10 12 9 13 8 8 -6
-7 -19 0 -22 42 -18 19 1 22 -2 17 -16 -5 -13 -4 -14 7 -6 8 7 18 7 27 2 15
-9 33 -3 26 8 -2 4 2 13 10 20 9 8 14 9 14 2 0 -6 5 -8 12 -4 7 4 8 3 4 -5 -4
-6 -11 -9 -15 -7 -4 3 -8 -1 -8 -9 0 -14 33 -15 55 -1 8 5 10 2 5 -10 -5 -15
-3 -15 23 2 l29 18 -20 -23 -20 -24 28 18 c22 14 30 15 42 5 9 -7 15 -8 15 -2
0 5 9 8 20 5 11 -3 18 -8 15 -12 -2 -4 6 -7 18 -6 12 1 30 -2 41 -7 13 -7 16
-7 12 1 -4 6 -2 11 3 11 6 0 11 -7 11 -16 0 -9 5 -12 12 -8 21 13 59 11 54 -3
-4 -9 2 -8 19 3 23 15 25 15 19 0 -5 -12 0 -16 17 -17 13 -1 29 0 34 2 6 1 27
2 48 1 23 -1 37 3 37 11 0 8 4 7 10 -3 9 -15 13 -16 48 -19 15 -1 15 -3 2 -11
-8 -5 -10 -10 -5 -10 6 0 16 5 22 11 7 7 15 5 28 -7 17 -17 17 -17 11 4 -6 18
-4 21 11 15 10 -3 24 -10 31 -16 6 -5 12 -6 12 -1 0 5 4 3 9 -5 5 -7 29 -15
54 -17 39 -2 45 -1 41 14 -5 15 -4 15 6 -1 8 -12 19 -16 38 -12 15 2 39 -2 54
-9 23 -12 26 -12 21 0 -6 15 -2 17 21 8 8 -3 12 -12 9 -20 -3 -8 0 -14 7 -14
6 0 9 4 5 9 -9 15 13 23 34 12 12 -7 21 -7 23 -1 2 5 13 7 25 4 13 -4 20 -10
17 -15 -3 -5 2 -9 11 -9 11 0 15 5 11 15 -3 8 -1 15 4 15 6 0 10 -4 10 -9 0
-14 31 -18 63 -10 19 5 25 4 21 -3 -5 -7 0 -9 14 -6 12 4 20 3 17 -2 -3 -4 4
-10 15 -13 22 -6 28 8 8 16 -7 3 -3 4 9 4 12 -1 20 -4 17 -8 -2 -4 3 -9 11
-13 8 -3 17 -1 20 4 4 6 11 10 16 10 6 0 7 -4 4 -10 -3 -6 1 -7 10 -4 8 4 22
1 30 -6 13 -11 14 -10 8 6 -6 17 -5 17 10 5 9 -7 17 -11 17 -7 0 3 11 1 24 -4
15 -5 27 -5 34 2 7 7 17 6 31 -1 12 -7 21 -8 21 -4 0 10 113 11 120 1 3 -4 18
-9 34 -12 16 -3 31 -7 33 -10 3 -3 16 -1 30 5 13 5 22 6 20 1 -3 -4 8 -7 23
-7 15 0 26 4 23 9 -3 4 10 5 28 1 52 -11 54 -11 51 3 -1 9 5 8 23 -4 15 -10
25 -12 25 -5 0 11 59 9 99 -4 13 -4 21 -2 21 5 0 6 10 8 26 4 17 -4 30 -2 36
7 8 11 9 11 5 -1 -3 -10 4 -20 18 -26 20 -10 22 -9 18 5 -4 9 -3 13 1 9 5 -4
20 -2 34 3 20 8 23 7 14 -3 -8 -11 -2 -13 29 -13 21 0 39 3 39 8 0 4 5 5 10 2
6 -4 8 -10 6 -14 -3 -4 12 -7 33 -7 27 1 37 5 34 14 -4 10 -9 10 -19 1 -12 -9
-13 -9 -8 4 3 9 14 15 24 14 10 -1 17 -4 14 -8 -9 -15 30 -18 53 -4 16 11 22
12 21 3 -2 -6 5 -14 15 -16 9 -2 17 2 17 8 0 6 -5 8 -12 4 -7 -4 -8 -3 -4 4 4
6 13 9 21 6 8 -4 12 -10 9 -15 -3 -5 0 -9 5 -9 6 0 11 5 11 11 0 5 5 7 11 3 6
-3 15 0 20 7 7 11 9 11 9 -3 0 -9 -8 -19 -17 -22 -14 -4 -14 -4 2 -3 11 1 26
-2 33 -7 8 -5 19 -3 25 3 9 9 8 11 -5 6 -10 -4 -18 -3 -18 3 0 19 20 24 37 10
12 -9 17 -10 20 -2 2 7 13 9 24 7 16 -4 17 -8 7 -14 -9 -6 -6 -8 9 -7 21 2 22
28 0 28 -6 0 -7 3 -4 7 10 9 48 -28 41 -39 -4 -6 5 -2 20 7 25 17 26 17 20 -1
-5 -17 -4 -17 6 -2 6 10 17 15 27 11 10 -4 14 -2 9 5 -4 7 1 10 14 9 14 -1 19
-6 15 -17 -5 -12 -4 -13 6 -2 15 14 33 16 24 2 -3 -5 -2 -10 4 -10 5 0 11 8
13 17 2 10 13 18 30 18 20 1 25 -2 20 -14 -5 -14 -3 -14 10 -3 18 14 49 13 60
-3 5 -6 8 -5 8 4 0 7 6 11 15 7 8 -3 15 -1 15 4 0 7 59 6 98 -2 4 -1 15 2 26
7 11 5 21 3 26 -5 6 -9 10 -7 15 9 3 11 14 21 23 20 11 0 12 -3 5 -6 -7 -2
-13 -8 -13 -13 0 -10 40 -1 60 14 13 9 13 9 2 -5 -10 -14 -9 -17 9 -22 15 -4
19 -2 15 8 -3 8 0 17 6 21 7 4 8 3 4 -4 -4 -7 -2 -12 3 -12 6 0 11 6 11 13 0
8 4 7 10 -3 5 -8 10 -10 10 -4 0 6 19 10 44 10 24 -1 42 -5 39 -9 -3 -5 -12
-6 -22 -2 -11 4 -13 3 -5 -5 14 -14 44 -2 44 17 0 8 5 11 10 8 6 -4 8 -10 5
-15 -3 -5 0 -12 6 -16 7 -4 9 -3 6 3 -4 6 0 19 8 29 13 18 14 18 10 -6 -4 -23
-3 -24 9 -7 10 13 21 16 41 11 19 -5 23 -9 14 -15 -10 -6 -7 -8 8 -7 11 1 19
7 16 14 -2 7 1 15 8 20 8 4 10 3 5 -4 -4 -7 -2 -12 3 -12 6 0 11 5 11 11 0 5
5 7 10 4 6 -4 8 -11 5 -16 -3 -5 1 -6 9 -3 10 4 16 1 16 -7 0 -7 3 -9 6 -6 4
4 1 13 -5 21 -10 12 -9 15 8 13 11 0 17 -5 15 -9 -3 -4 -1 -8 5 -8 5 0 11 5
13 11 3 8 10 6 21 -5 9 -10 17 -12 17 -6 0 6 5 8 11 4 7 -4 7 2 -1 17 l-13 24
26 -24 c23 -21 55 -22 42 -1 -11 18 19 22 32 5 7 -11 13 -15 13 -9 0 5 20 9
45 10 38 1 42 -1 27 -12 -15 -12 -15 -12 6 -7 12 3 22 9 22 14 0 5 7 6 15 3 9
-4 15 0 15 7 0 11 2 11 9 0 13 -20 44 -24 37 -5 -6 16 19 20 29 4 3 -5 11 -10
16 -10 6 0 7 5 3 11 -5 9 1 10 21 5 26 -7 27 -6 14 11 -12 16 -11 16 9 -1 13
-12 22 -14 22 -7 0 7 5 9 10 6 6 -4 8 -10 5 -15 -3 -4 3 -7 12 -5 10 2 22 4
26 4 5 1 5 6 1 12 -4 8 -9 7 -15 -2 -7 -11 -9 -10 -9 5 0 13 5 16 18 11 26
-10 46 -13 56 -7 5 3 22 6 37 7 21 2 26 -1 23 -14 -3 -9 1 -5 9 8 11 18 16 20
20 10 5 -12 7 -12 17 1 10 13 11 12 6 -4 -5 -14 -3 -16 6 -9 25 19 47 23 41 7
-3 -10 0 -12 10 -8 8 3 18 1 21 -5 3 -5 20 -8 36 -6 22 3 29 1 25 -8 -4 -7 0
-4 8 6 10 12 25 16 48 13 24 -2 38 2 51 18 12 14 16 16 12 5 -4 -13 1 -16 23
-13 24 4 25 3 8 -5 -17 -8 -17 -10 -3 -10 9 -1 21 5 25 13 7 12 11 12 26 1 16
-11 10 -15 -52 -30 -38 -9 -75 -14 -82 -9 -7 4 -9 3 -5 -4 9 -14 -16 -21 -329
-87 -694 -146 -1670 -197 -2600 -135 -590 39 -1227 154 -1580 284 -83 31 -301
147 -245 131 14 -4 34 -14 44 -21z m207 -3 c-7 -5 -10 -14 -6 -21 6 -9 2 -9
-16 1 -23 12 -23 12 -4 20 27 11 43 11 26 0z m4740 -107 c-18 -8 -38 -13 -45
-11 -6 3 5 9 24 15 50 15 60 13 21 -4z m-218 -12 c-11 -7 -19 -9 -21 -3 -2 5
-11 7 -20 4 -11 -3 -13 -2 -5 4 6 4 23 8 37 8 24 0 25 -1 9 -13z m-3759 0 c3
-5 -1 -9 -9 -9 -8 0 -15 4 -15 9 0 4 4 8 9 8 6 0 12 -4 15 -8z m3677 -13 c-14
-6 -28 -6 -33 -1 -5 5 5 9 24 10 31 0 31 -1 9 -9z"/>
<path d="M4821 16541 c-7 -35 -22 -93 -33 -129 l-20 -64 -49 4 c-32 3 -53 1
-59 -7 -8 -10 5 -16 55 -25 36 -7 69 -9 73 -5 4 3 14 25 24 48 l16 42 22 -48
c21 -47 23 -49 56 -43 100 18 109 18 99 8 -14 -15 -118 -32 -189 -32 -54 0
-115 10 -168 26 -10 3 -18 1 -18 -4 0 -38 313 -46 383 -10 17 8 17 10 0 33
-16 22 -23 23 -70 18 l-52 -6 -17 59 c-9 32 -22 90 -28 128 l-12 71 -13 -64z"/>
<path d="M4555 11369 c-310 -8 -643 -23 -649 -30 -3 -2 422 -4 942 -4 521 0
909 3 862 7 -136 11 -523 27 -675 28 -77 0 -149 2 -160 4 -11 2 -155 -1 -320
-5z"/>
<path d="M2558 11153 c6 -2 18 -2 25 0 6 3 1 5 -13 5 -14 0 -19 -2 -12 -5z"/>
<path d="M2508 11143 c7 -3 16 -2 19 1 4 3 -2 6 -13 5 -11 0 -14 -3 -6 -6z"/>
<path d="M2458 11133 c7 -3 16 -2 19 1 4 3 -2 6 -13 5 -11 0 -14 -3 -6 -6z"/>
<path d="M2398 11123 c6 -2 18 -2 25 0 6 3 1 5 -13 5 -14 0 -19 -2 -12 -5z"/>
<path d="M2285 11105 c-67 -17 -36 -18 40 -1 33 8 49 14 35 14 -14 0 -47 -6
-75 -13z"/>
<path d="M7648 11033 c7 -3 16 -2 19 1 4 3 -2 6 -13 5 -11 0 -14 -3 -6 -6z"/>
<path d="M2010 10950 c-6 -11 -8 -20 -6 -20 3 0 10 9 16 20 6 11 8 20 6 20 -3
0 -10 -9 -16 -20z"/>
<path d="M7733 10922 c-7 -4 -9 -13 -4 -21 6 -9 10 -7 14 8 3 12 4 21 4 21 -1
0 -7 -4 -14 -8z"/>
<path d="M2026 10677 c3 -10 9 -15 12 -12 3 3 0 11 -7 18 -10 9 -11 8 -5 -6z"/>
<path d="M5157 9004 c-4 -4 -7 -38 -7 -76 0 -54 3 -68 15 -68 12 0 15 12 14
53 -1 60 -11 102 -22 91z"/>
<path d="M2946 3003 c-6 -14 -5 -15 5 -6 7 7 10 15 7 18 -3 3 -9 -2 -12 -12z"/>
<path d="M6780 2962 c-13 -14 -12 -15 2 -10 8 4 21 1 27 -5 8 -8 14 -7 24 2
10 11 9 12 -2 6 -9 -5 -18 -2 -25 7 -10 14 -13 14 -26 0z"/>
<path d="M6225 2950 c3 -5 8 -10 11 -10 2 0 4 5 4 10 0 6 -5 10 -11 10 -5 0
-7 -4 -4 -10z"/>
<path d="M5946 2917 c3 -10 9 -15 12 -12 3 3 0 11 -7 18 -10 9 -11 8 -5 -6z"/>
<path d="M4027 2913 c-4 -6 0 -13 8 -17 8 -3 17 0 21 6 4 6 3 8 -4 4 -5 -3
-12 -1 -14 6 -3 8 -6 9 -11 1z"/>
<path d="M5787 2913 c-11 -11 -8 -20 7 -20 8 0 12 6 9 14 -6 15 -7 15 -16 6z"/>
<path d="M4410 2896 c0 -2 7 -7 16 -10 8 -3 12 -2 9 4 -6 10 -25 14 -25 6z"/>
<path d="M5470 2888 c0 -4 4 -8 9 -8 6 0 12 4 15 8 3 5 -1 9 -9 9 -8 0 -15 -4
-15 -9z"/>
<path d="M7053 16613 c-40 -2 -73 -8 -73 -13 0 -11 99 -145 179 -240 77 -93
132 -140 286 -243 161 -108 222 -174 319 -338 395 -671 475 -785 674 -967 103
-94 95 -95 131 22 91 295 110 731 41 941 -48 144 -180 275 -475 472 -274 182
-547 332 -641 352 -61 13 -314 21 -441 14z m397 -133 c25 -6 12 -7 -45 -4 -44
2 -131 6 -193 8 -63 3 -117 8 -120 12 -9 9 314 -5 358 -16z m80 -20 c18 -12 2
-12 -25 0 -13 6 -15 9 -5 9 8 0 22 -4 30 -9z m45 -20 c3 -6 -1 -7 -9 -4 -18 7
-21 14 -7 14 6 0 13 -4 16 -10z m-225 -60 c171 -15 226 -31 354 -102 61 -34
121 -66 133 -73 13 -7 20 -14 17 -17 -3 -4 3 -5 13 -4 10 0 17 -5 15 -12 -1
-8 2 -11 8 -7 6 4 37 -10 68 -31 31 -21 107 -69 167 -107 148 -93 362 -256
418 -317 25 -27 48 -62 51 -77 2 -16 8 -46 11 -68 l6 -40 -29 45 c-74 117
-608 535 -862 676 -116 65 -187 81 -423 99 -74 6 -92 11 -115 31 l-27 25 35
-5 c19 -3 91 -10 160 -16z m115 -207 c28 -8 111 -46 185 -85 74 -39 176 -92
227 -118 123 -64 202 -119 287 -200 163 -155 237 -375 302 -898 6 -51 5 -53
-13 -43 -45 23 -203 205 -277 316 -44 66 -149 237 -234 380 -265 447 -288 476
-462 592 -80 53 -123 94 -85 79 11 -4 43 -15 70 -23z"/>
<path d="M7910 16146 c0 -3 28 -24 63 -47 125 -85 436 -331 547 -433 45 -43
55 -48 58 -32 10 51 -244 249 -655 509 -7 4 -13 6 -13 3z"/>
<path d="M2460 16590 c-197 -12 -218 -18 -397 -121 -278 -159 -649 -423 -784
-558 -143 -143 -178 -247 -187 -546 -3 -136 0 -213 13 -315 17 -137 57 -316
74 -333 12 -12 71 34 180 138 148 142 216 237 462 652 93 157 189 313 213 347
62 87 145 162 266 242 58 38 143 105 189 149 80 76 120 123 239 278 l52 67
-82 1 c-46 0 -92 2 -103 3 -11 1 -72 -1 -135 -4z m190 -128 c0 -25 -54 -44
-62 -21 -5 16 -290 -8 -352 -30 -89 -33 -93 -33 -66 -17 51 31 148 56 250 65
143 11 230 13 230 3z m-42 -52 c-2 -7 -33 -13 -73 -14 -39 -2 -101 -6 -140 -9
-89 -8 -66 0 50 16 127 19 168 20 163 7z m-18 -29 c0 -5 -14 -21 -31 -35 -24
-21 -41 -26 -84 -26 -160 0 -300 -42 -471 -140 -314 -181 -645 -435 -784 -601
-43 -51 -48 -64 -59 -133 -18 -125 -10 -593 9 -501 5 22 8 9 14 -50 4 -44 9
-91 12 -105 4 -19 2 -22 -6 -10 -5 8 -10 38 -11 65 -1 42 -2 45 -8 20 l-7 -30
-7 40 c-39 209 -52 581 -23 647 8 18 22 59 32 91 17 57 68 127 93 127 7 0 9 5
6 10 -3 6 -1 10 4 10 6 0 28 16 49 35 22 19 41 33 44 30 2 -3 17 9 33 25 16
17 35 30 42 30 9 0 11 5 7 13 -4 6 -3 9 1 4 5 -4 20 3 33 15 14 13 22 18 18
11 -3 -6 -2 -14 4 -18 5 -3 40 18 77 48 133 105 400 280 529 345 90 45 159 62
316 76 79 7 149 14 156 15 6 0 12 -3 12 -8z m-324 -133 c4 -7 4 -10 -1 -6 -4
4 -21 0 -37 -8 -16 -8 -37 -13 -46 -11 -12 3 -7 9 18 20 43 20 57 21 66 5z
m-126 -43 c-14 -8 -29 -14 -35 -14 -5 0 1 6 15 14 14 8 30 14 35 14 6 0 -1 -6
-15 -14z m185 -5 c4 -6 3 -9 -2 -8 -4 1 -23 -6 -41 -16 -19 -9 -36 -15 -39
-12 -3 2 12 14 34 25 46 24 41 23 48 11z m44 -26 c-13 -15 -64 -53 -113 -86
-176 -119 -208 -161 -486 -623 -110 -184 -228 -371 -262 -417 -64 -87 -197
-227 -235 -247 -21 -11 -22 -10 -18 16 3 16 12 80 20 143 55 395 132 610 269
746 109 108 173 149 556 360 63 34 145 72 181 84 37 11 75 27 85 35 29 22 30
18 3 -11z m-439 -79 c-7 -8 -20 -15 -29 -15 -11 1 -8 5 9 15 32 18 35 18 20 0z
m40 -60 c0 -2 -20 -18 -45 -35 -57 -39 -59 -31 -3 10 41 30 48 34 48 25z"/>
<path d="M1410 15837 c-64 -60 -68 -65 -26 -36 73 52 121 95 110 101 -5 3 -43
-26 -84 -65z"/>
<path d="M1249 15673 l-24 -28 28 24 c25 23 32 31 24 31 -2 0 -14 -12 -28 -27z"/>
<path d="M1205 15620 c-10 -11 -16 -22 -14 -24 2 -2 12 7 22 20 22 29 17 32
-8 4z"/>
<path d="M8100 16593 c0 -5 42 -28 93 -53 50 -25 154 -82 231 -128 76 -45 141
-81 143 -79 8 8 -194 133 -322 199 -132 68 -145 74 -145 61z"/>
<path d="M1537 16497 c-144 -74 -307 -171 -307 -183 0 -6 25 7 113 58 38 22
142 78 230 124 89 46 154 84 144 84 -10 0 -91 -37 -180 -83z"/>
<path d="M8782 11950 c0 -19 2 -27 5 -17 2 9 2 25 0 35 -3 9 -5 1 -5 -18z"/>
<path d="M8441 11134 c0 -11 3 -14 6 -6 3 7 2 16 -1 19 -3 4 -6 -2 -5 -13z"/>
<path d="M8452 11080 c0 -14 2 -19 5 -12 2 6 2 18 0 25 -3 6 -5 1 -5 -13z"/>
<path d="M8446 11022 c-9 -14 -126 -843 -161 -1142 -87 -724 -113 -966 -160
-1475 -64 -694 -109 -1313 -150 -2045 -14 -262 -43 -688 -110 -1670 -19 -278
-41 -620 -50 -760 -48 -796 -87 -1317 -115 -1509 -12 -79 -19 -145 -17 -147 4
-5 38 190 61 347 13 92 17 103 95 240 235 414 340 677 451 1134 139 565 208
1066 264 1905 53 791 66 1140 73 2015 6 720 -3 1153 -32 1700 -17 306 -16 302
-51 675 -46 498 -53 584 -49 589 3 2 5 -8 5 -22 0 -19 8 -31 28 -41 15 -8 90
-60 165 -115 76 -56 147 -101 159 -101 20 0 65 -31 143 -99 33 -28 283 -261
308 -287 4 -4 7 -5 7 -1 0 3 -87 88 -193 189 -120 113 -214 194 -248 212 -75
41 -327 224 -344 250 -7 11 -16 37 -20 56 -15 79 -26 110 -40 110 -8 0 -16 -4
-19 -8z m-12 -1337 c32 -576 37 -730 43 -1335 6 -735 -7 -1284 -34 -1388 -10
-37 -48 -128 -85 -202 -55 -112 -67 -130 -67 -103 -1 29 49 173 69 198 11 15
22 82 26 160 9 215 15 351 20 440 20 337 33 1420 19 1525 -3 19 -5 96 -5 170
-1 95 -4 136 -13 142 -9 6 -9 8 1 8 14 0 17 27 3 32 -5 2 -11 53 -12 113 -1
61 -6 115 -10 121 -5 6 -10 27 -11 46 -2 20 -6 34 -10 31 -5 -2 -8 2 -8 11 0
8 -7 27 -16 43 -16 27 -16 35 5 138 21 107 45 165 61 149 5 -5 15 -139 24
-299z m126 -2785 c0 -33 -3 -40 -17 -38 -11 2 -18 -5 -21 -17 -7 -48 -13 -67
-19 -61 -7 7 -47 -77 -64 -134 -7 -22 -19 -46 -27 -53 -13 -10 -15 -9 -10 3
71 178 123 297 132 302 6 4 7 8 3 8 -7 0 13 28 21 30 1 0 2 -18 2 -40z m-139
-134 c-17 -36 -33 -66 -35 -66 -3 0 6 26 20 58 14 31 28 63 31 70 3 7 7 11 9
9 3 -2 -9 -34 -25 -71z m126 -13 c-3 -10 -5 -2 -5 17 0 19 2 27 5 18 2 -10 2
-26 0 -35z m-10 -65 c-3 -8 -6 -5 -6 6 -1 11 2 17 5 13 3 -3 4 -12 1 -19z
m-27 -110 c-50 -186 -60 -254 -80 -508 -74 -949 -96 -1139 -201 -1710 -57
-312 -92 -460 -150 -628 -80 -236 -204 -521 -268 -622 l-23 -35 6 40 c4 22 12
88 18 148 7 59 14 107 17 107 4 0 5 30 3 67 -2 38 1 79 7 93 8 22 10 18 10
-27 1 -29 6 -53 11 -53 8 0 15 37 11 63 0 4 3 7 7 7 9 0 41 63 46 90 2 8 8 27
14 42 6 15 13 45 16 67 4 34 21 82 44 125 3 5 0 6 -6 2 -9 -5 -9 0 -2 19 5 14
11 39 12 55 1 16 5 27 9 24 10 -6 19 23 19 61 0 18 6 36 13 38 9 4 8 8 -3 16
-8 6 -10 11 -4 11 13 0 33 68 37 122 1 20 5 34 10 31 4 -2 8 2 9 9 2 18 3 26
13 78 5 25 8 49 7 53 -1 4 3 18 10 30 6 12 13 40 15 62 5 65 7 74 14 69 11 -6
18 23 13 52 -3 15 0 30 7 34 6 4 13 23 15 41 6 63 13 104 24 159 14 69 21 114
25 165 2 22 4 40 5 40 1 0 3 14 5 30 2 17 6 41 9 55 3 14 8 50 11 80 3 30 7
69 9 85 2 17 7 50 11 75 3 25 8 81 10 125 2 44 7 100 9 125 3 24 7 72 8 106 2
34 6 60 9 59 3 -2 6 26 6 63 1 148 6 258 14 285 4 16 4 25 -1 22 -22 -14 6 94
40 157 6 10 10 25 10 33 0 8 5 15 11 15 5 0 7 5 4 10 -3 6 -2 10 3 10 9 0 42
123 42 158 0 29 20 38 21 10 0 -13 7 9 16 47 8 39 19 72 24 73 5 2 9 11 9 20
0 8 3 13 6 9 3 -3 -4 -43 -16 -89z m-43 -10 c-3 -8 -6 -5 -6 6 -1 11 2 17 5
13 3 -3 4 -12 1 -19z m-86 -31 c-10 -9 -11 -8 -5 6 3 10 9 15 12 12 3 -3 0
-11 -7 -18z m-524 -2549 c-3 -7 -5 -2 -5 12 0 14 2 19 5 13 2 -7 2 -19 0 -25z
m-10 -150 c-2 -13 -4 -3 -4 22 0 25 2 35 4 23 2 -13 2 -33 0 -45z m0 -115 c-3
-10 -5 -4 -5 12 0 17 2 24 5 18 2 -7 2 -21 0 -30z m0 -60 c-3 -10 -5 -4 -5 12
0 17 2 24 5 18 2 -7 2 -21 0 -30z"/>
<path d="M7850 3430 c0 -5 5 -10 11 -10 5 0 7 5 4 10 -3 6 -8 10 -11 10 -2 0
-4 -4 -4 -10z"/>
<path d="M1100 10991 c0 -45 -39 -163 -63 -188 -24 -27 -176 -128 -302 -203
-143 -83 -539 -426 -608 -525 -11 -16 37 27 109 97 133 132 411 372 452 391
18 9 25 8 33 -4 5 -8 9 -9 9 -4 0 6 15 19 33 30 17 10 93 58 168 107 75 48
139 88 144 88 11 0 0 -186 -25 -410 -25 -238 -45 -512 -67 -925 -21 -414 -25
-1743 -5 -2225 65 -1620 164 -2521 362 -3285 l31 -119 -23 -18 c-42 -33 -162
-87 -233 -105 -84 -21 -77 -17 -70 -36 10 -24 110 4 234 64 56 28 104 49 106
47 1 -2 19 -57 39 -123 84 -277 198 -534 351 -795 103 -176 103 -175 120 -327
8 -76 20 -159 25 -183 l9 -45 -4 50 c-3 28 -12 136 -20 242 -8 105 -21 276
-30 380 -8 103 -24 296 -35 428 -11 132 -24 319 -30 415 -13 223 -108 1560
-115 1620 -2 25 -9 133 -15 240 -13 243 -83 1302 -110 1665 -70 923 -170 1817
-336 2985 -30 212 -61 421 -68 465 -8 44 -18 109 -21 145 -7 63 -18 90 -36 90
-5 0 -9 -13 -9 -29z m47 -568 c-2 -16 -4 -5 -4 22 0 28 2 40 4 28 2 -13 2 -35
0 -50z m76 -458 c25 -92 63 -309 92 -529 26 -199 29 -271 6 -162 -9 41 -16 55
-23 48 -10 -10 -17 -130 -17 -262 1 -25 1 -98 1 -162 0 -78 4 -115 11 -111 6
3 7 1 3 -5 -8 -14 -10 -261 -2 -269 3 -3 1 -13 -4 -23 -5 -10 -7 -20 -4 -23 4
-3 8 -93 9 -199 5 -251 12 -428 19 -435 2 -3 1 -15 -4 -28 -5 -13 -6 -26 -2
-29 6 -7 11 -80 12 -174 1 -30 4 -41 13 -36 9 5 9 3 0 -7 -14 -14 -18 -33 -5
-26 12 8 10 -87 -2 -95 -6 -5 -7 -8 -1 -8 6 0 11 -21 13 -46 1 -25 6 -63 11
-83 5 -24 4 -45 -2 -56 -5 -10 -6 -15 0 -12 6 4 10 -31 12 -86 1 -51 6 -132
12 -182 5 -49 12 -112 14 -140 3 -27 8 -61 11 -73 3 -14 1 -21 -5 -17 -7 3 -6
-5 0 -25 6 -17 9 -36 6 -43 -3 -7 -2 -32 3 -55 4 -23 3 -39 -1 -36 -5 3 -9 3
-9 1 0 -8 54 -135 76 -179 14 -27 20 -48 15 -48 -5 0 -15 13 -22 29 -9 19 -19
28 -31 26 -17 -4 -20 -1 -22 28 -1 6 -6 17 -13 22 -32 28 -232 464 -252 550
-28 125 -43 1588 -21 2145 11 286 47 854 56 883 9 28 28 0 47 -68z m124 -802
c-3 -10 -5 -2 -5 17 0 19 2 27 5 18 2 -10 2 -26 0 -35z m10 -90 c-3 -10 -5 -2
-5 17 0 19 2 27 5 18 2 -10 2 -26 0 -35z m-269 -2058 c7 -14 12 -39 12 -54 0
-16 6 -31 13 -34 7 -3 27 -38 44 -78 32 -76 106 -232 123 -259 17 -27 40 -86
45 -110 4 -24 4 -24 -11 -5 -16 22 -187 364 -228 459 -26 58 -34 106 -18 106
5 0 14 -11 20 -25z m-39 -47 c6 -15 5 -28 -4 -38 -7 -8 -15 -22 -18 -30 -3 -8
-6 2 -6 22 -1 35 7 68 15 68 3 0 9 -10 13 -22z m102 -218 c45 -96 82 -183 81
-193 0 -9 3 -15 8 -12 6 4 7 -2 3 -11 -4 -12 -3 -15 5 -10 8 5 10 1 5 -10 -4
-11 -2 -15 4 -11 6 4 14 0 17 -9 4 -10 2 -13 -7 -8 -6 4 -2 -3 10 -15 14 -13
20 -27 16 -38 -4 -11 -3 -14 5 -9 7 4 19 -10 32 -36 12 -25 15 -35 5 -24 -12
16 -15 17 -15 4 0 -19 24 -41 34 -31 4 4 4 -1 0 -11 -5 -13 -4 -17 4 -12 8 5
10 2 6 -8 -3 -9 -1 -30 5 -48 20 -57 0 -22 -91 159 -49 98 -86 167 -82 153 7
-29 85 -197 165 -358 31 -62 50 -107 43 -101 -7 6 -16 20 -20 31 -5 17 -8 18
-16 7 -7 -10 -8 -9 -4 7 4 11 -1 29 -10 40 -8 10 -13 14 -10 7 4 -6 1 -15 -5
-19 -8 -5 -10 1 -6 22 4 25 -15 84 -29 84 -2 0 2 -13 11 -29 8 -17 12 -37 9
-46 -4 -8 -1 -30 6 -48 30 -75 43 -106 78 -177 20 -41 37 -82 38 -90 2 -15 92
-180 103 -190 12 -10 43 -62 33 -56 -5 3 -13 -1 -16 -10 -3 -8 -2 -12 4 -9 13
8 13 -1 -2 -28 -9 -19 -9 -20 3 -10 12 9 14 1 14 -58 0 -38 -2 -69 -5 -69 -3
0 -6 -11 -6 -25 -1 -14 1 -23 5 -21 3 2 6 -22 6 -55 0 -33 4 -59 10 -59 6 0 5
-4 -1 -8 -13 -8 -13 -104 0 -113 4 -4 3 -16 -3 -28 -8 -13 -8 -21 -2 -21 6 0
9 -21 8 -50 -2 -28 0 -53 5 -56 5 -3 8 -11 7 -17 -4 -36 2 -97 10 -93 5 4 6
-9 1 -29 -5 -21 -4 -38 2 -41 5 -3 7 -12 4 -19 -3 -8 -1 -15 4 -17 5 -2 12
-30 15 -63 4 -42 2 -55 -5 -45 -6 9 -10 10 -10 3 0 -6 4 -14 10 -18 5 -3 6
-13 3 -22 -5 -12 -3 -14 8 -8 12 7 12 6 1 -7 -11 -14 -11 -21 3 -42 10 -15 13
-26 6 -26 -5 0 -8 -7 -4 -16 5 -13 7 -13 14 -2 7 10 9 10 9 0 0 -7 -6 -15 -14
-18 -28 -11 -4 -50 27 -45 5 1 6 -3 2 -9 -3 -6 -10 -8 -15 -5 -4 3 -11 -3 -14
-12 -4 -10 -4 -14 0 -10 10 10 37 -31 29 -43 -4 -6 -12 -7 -18 -3 -7 4 -6 0 2
-10 7 -9 17 -14 22 -11 16 10 9 -9 -8 -22 -17 -13 -17 -14 1 -8 16 6 17 4 7
-14 -10 -18 -9 -21 5 -15 14 5 15 3 5 -15 -14 -26 -14 -35 0 -26 8 5 8 1 0
-14 -14 -26 -14 -35 0 -26 7 4 7 -1 -1 -16 -9 -18 -9 -21 0 -15 13 8 11 -16
-5 -60 -5 -16 -5 -17 4 -5 8 11 10 2 7 -35 -1 -28 1 -58 6 -67 5 -11 5 -18 -1
-18 -6 0 -8 -7 -5 -15 4 -8 10 -12 15 -9 5 3 9 -2 9 -11 0 -9 -4 -14 -8 -11
-4 2 -8 -4 -8 -14 0 -10 4 -16 8 -14 4 3 4 -19 1 -47 -4 -33 -3 -50 4 -46 5 3
11 -14 12 -41 2 -26 5 -65 6 -87 2 -22 4 -70 4 -107 1 -56 4 -68 17 -68 14 0
14 3 4 15 -10 12 -10 15 1 15 9 0 10 3 4 8 -6 4 -10 13 -9 20 1 6 2 40 4 75 1
34 3 58 5 52 2 -5 11 -131 20 -280 9 -148 20 -319 24 -380 4 -60 6 -111 5
-113 -11 -16 -125 251 -228 533 -122 332 -254 891 -311 1315 -24 179 -87 806
-125 1255 -12 132 -28 272 -36 310 -41 191 -55 262 -56 288 -1 15 -4 27 -8 27
-6 0 -40 98 -40 116 0 15 35 -49 52 -96 9 -25 20 -74 23 -110 4 -36 9 -67 11
-69 12 -12 2 151 -11 182 -8 19 -16 57 -19 83 -5 59 -15 86 -27 78 -10 -6 -12
9 -2 19 8 9 0 25 94 -173z m209 -339 c-1 -13 -3 -13 -15 3 -19 26 -19 42 0 26
8 -7 15 -20 15 -29z m41 -58 c13 -16 12 -17 -3 -4 -10 7 -18 15 -18 17 0 8 8
3 21 -13z m49 -94 c15 -28 5 -23 -15 7 -9 15 -12 23 -6 20 6 -4 16 -16 21 -27z
m-51 -69 c11 -24 11 -24 -3 -6 -9 11 -16 24 -16 30 0 12 5 7 19 -24z m318
-1512 c-3 -8 -6 -5 -6 6 -1 11 2 17 5 13 3 -3 4 -12 1 -19z m0 -55 c-3 -10 -5
-4 -5 12 0 17 2 24 5 18 2 -7 2 -21 0 -30z m7 -39 c3 -8 2 -12 -4 -9 -6 3 -10
10 -10 16 0 14 7 11 14 -7z m6 -40 c0 -8 -5 -12 -10 -9 -6 4 -8 11 -5 16 9 14
15 11 15 -7z m25 -304 c3 -58 10 -166 15 -240 11 -158 11 -270 0 -145 -4 44
-10 118 -13 165 -3 47 -8 103 -11 125 -2 22 -7 103 -10 180 -6 157 7 97 19
-85z m-498 188 c-3 -8 -6 -5 -6 6 -1 11 2 17 5 13 3 -3 4 -12 1 -19z m33 -123
c0 -5 -5 -3 -10 5 -5 8 -10 20 -10 25 0 6 5 3 10 -5 5 -8 10 -19 10 -25z m107
-497 c-3 -8 -6 -5 -6 6 -1 11 2 17 5 13 3 -3 4 -12 1 -19z m142 -383 c17 -46
44 -112 61 -145 17 -33 28 -60 25 -60 -12 0 -103 202 -118 263 -14 53 2 26 32
-58z m321 -539 c0 -18 -17 8 -24 34 l-7 25 15 -25 c9 -14 15 -29 16 -34z"/>
<path d="M1030 6955 c0 -8 4 -15 10 -15 5 0 7 7 4 15 -4 8 -8 15 -10 15 -2 0
-4 -7 -4 -15z"/>
<path d="M1147 6625 c3 -27 7 -52 9 -54 8 -9 2 65 -6 84 -6 13 -7 2 -3 -30z"/>
<path d="M1625 4761 c-3 -5 -1 -12 5 -16 5 -3 10 1 10 9 0 18 -6 21 -15 7z"/>
<path d="M1768 3548 c2 -10 6 -18 7 -18 1 0 5 8 7 18 3 11 0 19 -7 19 -7 0
-10 -8 -7 -19z"/>
<path d="M1773 3505 c0 -8 4 -12 9 -9 4 3 8 9 8 15 0 5 -4 9 -8 9 -5 0 -9 -7
-9 -15z"/>
<path d="M1781 3464 c0 -11 3 -14 6 -6 3 7 2 16 -1 19 -3 4 -6 -2 -5 -13z"/>
<path d="M8796 10525 c-4 -25 -9 -45 -11 -45 -3 0 -31 16 -62 36 l-58 36 58
-57 c66 -65 66 -68 41 -216 -24 -140 -16 -228 29 -323 47 -99 60 -115 154
-187 42 -33 124 -102 182 -152 139 -123 192 -167 199 -167 11 0 -45 55 -208
202 -91 83 -178 164 -193 182 -32 35 -79 133 -102 210 -24 80 -35 247 -25 391
9 135 7 168 -4 90z"/>
<path d="M751 10408 c0 -61 3 -86 9 -73 12 28 12 153 0 160 -6 4 -10 -27 -9
-87z"/>
<path d="M8569 10445 c24 -50 171 -206 171 -182 0 3 -19 24 -43 48 -23 24 -64
69 -90 99 -26 30 -44 46 -38 35z"/>
<path d="M8812 10290 c0 -14 2 -19 5 -12 2 6 2 18 0 25 -3 6 -5 1 -5 -13z"/>
<path d="M757 10280 c-3 -8 -8 -44 -11 -80 -8 -97 -41 -212 -97 -336 -56 -125
-50 -118 -293 -328 -186 -162 -186 -180 1 -24 70 59 171 143 223 185 84 69 99
86 132 153 46 93 68 187 67 282 -1 85 -13 170 -22 148z"/>
<path d="M9382 10120 c51 -66 78 -115 99 -178 l19 -57 -5 44 c-8 59 -56 149
-107 197 l-41 39 35 -45z"/>
<path d="M8832 10125 c0 -16 2 -22 5 -12 2 9 2 23 0 30 -3 6 -5 -1 -5 -18z"/>
<path d="M16 9853 c-4 -21 -3 -58 2 -83 8 -40 8 -36 8 38 0 45 -1 82 -2 82 -1
0 -5 -17 -8 -37z"/>
<path d="M9491 9797 c-2 -29 -49 -164 -86 -246 -19 -42 -28 -67 -19 -56 42 52
120 266 111 302 -4 17 -5 17 -6 0z"/>
<path d="M41 9675 c1 -19 18 -51 18 -35 0 8 -4 22 -9 30 -5 8 -9 11 -9 5z"/>
<path d="M65 9600 c11 -39 51 -123 69 -145 9 -11 -3 21 -25 70 -44 96 -56 116
-44 75z"/>
<path d="M8864 8478 c-4 -6 -11 -86 -15 -177 -4 -91 -15 -245 -24 -341 -17
-178 -14 -240 9 -240 29 0 31 8 72 270 17 110 20 433 5 473 -11 28 -34 36 -47
15z"/>
<path d="M702 8453 c-4 -10 -7 -110 -7 -223 1 -293 44 -555 85 -514 10 10 7
75 -20 414 -5 69 -10 168 -10 221 0 60 -4 99 -12 107 -17 17 -27 15 -36 -5z"/>
<path d="M736 5511 c-25 -166 -37 -300 -41 -481 l-3 -165 8 125 c9 119 27 312
51 523 6 54 9 100 7 103 -3 2 -13 -45 -22 -105z"/>
<path d="M8893 5535 c4 -22 15 -141 26 -265 28 -308 30 -318 26 -135 -4 148
-36 420 -51 434 -4 3 -4 -12 -1 -34z"/>
<path d="M1932 2270 c0 -14 2 -19 5 -12 2 6 2 18 0 25 -3 6 -5 1 -5 -13z"/>
<path d="M7672 2240 c0 -14 2 -19 5 -12 2 6 2 18 0 25 -3 6 -5 1 -5 -13z"/>
<path d="M7662 2190 c0 -14 2 -19 5 -12 2 6 2 18 0 25 -3 6 -5 1 -5 -13z"/>
<path d="M1350 2006 c0 -68 88 -450 136 -595 35 -106 59 -140 176 -260 57 -58
120 -126 140 -151 l38 -45 -16 40 c-24 58 -13 176 26 298 17 53 35 97 39 97 5
0 55 -37 112 -83 151 -121 395 -304 421 -317 20 -9 20 -9 -2 7 -13 10 -58 45
-98 78 -41 33 -86 69 -101 80 -146 108 -329 266 -431 371 -166 171 -338 368
-386 443 -43 66 -54 74 -54 37z m175 -553 c16 -27 82 -101 148 -165 124 -121
158 -178 43 -72 -35 32 -90 83 -122 112 -54 48 -83 91 -99 150 -10 35 1 26 30
-25z"/>
<path d="M8262 1982 c-54 -96 -189 -259 -332 -402 -133 -132 -186 -177 -365
-304 -116 -82 -239 -174 -275 -204 -35 -30 -88 -70 -117 -90 -29 -19 -53 -37
-53 -39 0 -9 131 79 190 128 25 21 135 101 245 178 l200 141 17 -38 c61 -136
74 -320 29 -398 l-23 -39 28 35 c15 19 90 98 166 176 112 115 143 153 167 205
48 107 115 359 146 551 24 147 18 172 -23 100z m-292 -845 c0 -2 -17 -19 -37
-38 l-38 -34 34 38 c33 34 41 42 41 34z"/>
<path d="M6959 1363 c-13 -16 -12 -17 4 -4 16 13 21 21 13 21 -2 0 -10 -8 -17
-17z"/>
<path d="M2450 976 c0 -3 9 -10 20 -16 11 -6 20 -8 20 -6 0 3 -9 10 -20 16
-11 6 -20 8 -20 6z"/>
<path d="M2500 945 c0 -7 121 -67 126 -63 2 2 -26 18 -61 36 -36 17 -65 30
-65 27z"/>
<path d="M7030 900 c-41 -21 -72 -39 -67 -40 10 0 147 69 147 75 0 7 3 8 -80
-35z"/>
<path d="M2978 753 c7 -3 16 -2 19 1 4 3 -2 6 -13 5 -11 0 -14 -3 -6 -6z"/>
<path d="M3018 743 c7 -3 16 -2 19 1 4 3 -2 6 -13 5 -11 0 -14 -3 -6 -6z"/>
<path d="M6568 733 c7 -3 16 -2 19 1 4 3 -2 6 -13 5 -11 0 -14 -3 -6 -6z"/>
<path d="M6528 723 c7 -3 16 -2 19 1 4 3 -2 6 -13 5 -11 0 -14 -3 -6 -6z"/>
<path d="M3138 713 c7 -3 16 -2 19 1 4 3 -2 6 -13 5 -11 0 -14 -3 -6 -6z"/>
<path d="M6488 713 c7 -3 16 -2 19 1 4 3 -2 6 -13 5 -11 0 -14 -3 -6 -6z"/>
<path d="M3178 703 c7 -3 16 -2 19 1 4 3 -2 6 -13 5 -11 0 -14 -3 -6 -6z"/>
<path d="M6438 703 c7 -3 16 -2 19 1 4 3 -2 6 -13 5 -11 0 -14 -3 -6 -6z"/>
<path d="M6398 693 c7 -3 16 -2 19 1 4 3 -2 6 -13 5 -11 0 -14 -3 -6 -6z"/>
<path d="M3278 683 c7 -3 16 -2 19 1 4 3 -2 6 -13 5 -11 0 -14 -3 -6 -6z"/>
<path d="M3328 673 c7 -3 16 -2 19 1 4 3 -2 6 -13 5 -11 0 -14 -3 -6 -6z"/>
<path d="M6298 673 c7 -3 16 -2 19 1 4 3 -2 6 -13 5 -11 0 -14 -3 -6 -6z"/>
<path d="M3368 663 c6 -2 18 -2 25 0 6 3 1 5 -13 5 -14 0 -19 -2 -12 -5z"/>
<path d="M6238 663 c7 -3 16 -2 19 1 4 3 -2 6 -13 5 -11 0 -14 -3 -6 -6z"/>
<path d="M3428 653 c6 -2 18 -2 25 0 6 3 1 5 -13 5 -14 0 -19 -2 -12 -5z"/>
<path d="M6178 653 c6 -2 18 -2 25 0 6 3 1 5 -13 5 -14 0 -19 -2 -12 -5z"/>
<path d="M3493 643 c9 -2 23 -2 30 0 6 3 -1 5 -18 5 -16 0 -22 -2 -12 -5z"/>
<path d="M6118 643 c6 -2 18 -2 25 0 6 3 1 5 -13 5 -14 0 -19 -2 -12 -5z"/>
<path d="M3563 633 c9 -2 25 -2 35 0 9 3 1 5 -18 5 -19 0 -27 -2 -17 -5z"/>
<path d="M6043 633 c9 -2 23 -2 30 0 6 3 -1 5 -18 5 -16 0 -22 -2 -12 -5z"/>
<path d="M3633 623 c9 -2 25 -2 35 0 9 3 1 5 -18 5 -19 0 -27 -2 -17 -5z"/>
<path d="M5973 623 c9 -2 23 -2 30 0 6 3 -1 5 -18 5 -16 0 -22 -2 -12 -5z"/>
<path d="M3713 613 c9 -2 25 -2 35 0 9 3 1 5 -18 5 -19 0 -27 -2 -17 -5z"/>
<path d="M5888 613 c12 -2 30 -2 40 0 9 3 -1 5 -23 4 -22 0 -30 -2 -17 -4z"/>
<path d="M3803 603 c9 -2 25 -2 35 0 9 3 1 5 -18 5 -19 0 -27 -2 -17 -5z"/>
<path d="M5803 603 c9 -2 25 -2 35 0 9 3 1 5 -18 5 -19 0 -27 -2 -17 -5z"/>
<path d="M3908 593 c12 -2 30 -2 40 0 9 3 -1 5 -23 4 -22 0 -30 -2 -17 -4z"/>
<path d="M5703 593 c9 -2 23 -2 30 0 6 3 -1 5 -18 5 -16 0 -22 -2 -12 -5z"/>
<path d="M4023 583 c15 -2 39 -2 55 0 15 2 2 4 -28 4 -30 0 -43 -2 -27 -4z"/>
<path d="M5578 583 c12 -2 30 -2 40 0 9 3 -1 5 -23 4 -22 0 -30 -2 -17 -4z"/>
<path d="M4167 573 c18 -2 50 -2 70 0 21 2 7 4 -32 4 -38 0 -55 -2 -38 -4z"/>
<path d="M5397 573 c18 -2 50 -2 70 0 21 2 7 4 -32 4 -38 0 -55 -2 -38 -4z"/>
<path d="M4377 563 c18 -2 50 -2 70 0 21 2 7 4 -32 4 -38 0 -55 -2 -38 -4z"/>
<path d="M5183 563 c26 -2 68 -2 95 0 26 2 4 3 -48 3 -52 0 -74 -1 -47 -3z"/>
<path d="M4683 553 c71 -2 183 -2 250 0 67 1 10 3 -128 3 -137 0 -192 -2 -122
-3z"/>
</g>
</svg>
